<?xml version="1.0" encoding="utf-8" standalone="no"?>
<!DOCTYPE svg PUBLIC "-//W3C//DTD SVG 1.1//EN"
  "http://www.w3.org/Graphics/SVG/1.1/DTD/svg11.dtd">
<!-- Created with matplotlib (https://matplotlib.org/) -->
<svg height="345.6pt" version="1.1" viewBox="0 0 460.8 345.6" width="460.8pt" xmlns="http://www.w3.org/2000/svg" xmlns:xlink="http://www.w3.org/1999/xlink">
 <defs>
  <style type="text/css">
*{stroke-linecap:butt;stroke-linejoin:round;white-space:pre;}
  </style>
 </defs>
 <g id="figure_1">
  <g id="patch_1">
   <path d="M 0 345.6 
L 460.8 345.6 
L 460.8 0 
L 0 0 
z
" style="fill:#ffffff;"/>
  </g>
  <g id="axes_1">
   <g id="patch_2">
    <path d="M 57.6 307.584 
L 414.72 307.584 
L 414.72 41.472 
L 57.6 41.472 
z
" style="fill:#ffffff;"/>
   </g>
   <g id="PathCollection_1">
    <defs>
     <path d="M 0 3 
C 0.795609 3 1.55874 2.683901 2.12132 2.12132 
C 2.683901 1.55874 3 0.795609 3 0 
C 3 -0.795609 2.683901 -1.55874 2.12132 -2.12132 
C 1.55874 -2.683901 0.795609 -3 0 -3 
C -0.795609 -3 -1.55874 -2.683901 -2.12132 -2.12132 
C -2.683901 -1.55874 -3 -0.795609 -3 0 
C -3 0.795609 -2.683901 1.55874 -2.12132 2.12132 
C -1.55874 2.683901 -0.795609 3 0 3 
z
" id="m1700e241db" style="stroke:#ff0000;"/>
    </defs>
    <g clip-path="url(#pec48c02185)">
     <use style="fill:#1f77b4;stroke:#ff0000;" x="74.036528" xlink:href="#m1700e241db" y="281.401479"/>
     <use style="fill:#1f77b4;stroke:#ff0000;" x="114.59284" xlink:href="#m1700e241db" y="277.232023"/>
     <use style="fill:#1f77b4;stroke:#ff0000;" x="155.149152" xlink:href="#m1700e241db" y="268.645751"/>
     <use style="fill:#1f77b4;stroke:#ff0000;" x="195.705465" xlink:href="#m1700e241db" y="253.638504"/>
     <use style="fill:#1f77b4;stroke:#ff0000;" x="236.261777" xlink:href="#m1700e241db" y="219.541932"/>
     <use style="fill:#1f77b4;stroke:#ff0000;" x="276.818089" xlink:href="#m1700e241db" y="197.565983"/>
     <use style="fill:#1f77b4;stroke:#ff0000;" x="317.374402" xlink:href="#m1700e241db" y="149.880937"/>
     <use style="fill:#1f77b4;stroke:#ff0000;" x="357.930714" xlink:href="#m1700e241db" y="95.659631"/>
     <use style="fill:#1f77b4;stroke:#ff0000;" x="398.487026" xlink:href="#m1700e241db" y="67.654521"/>
    </g>
   </g>
   <g id="matplotlib.axis_1">
    <g id="xtick_1">
     <g id="line2d_1">
      <defs>
       <path d="M 0 0 
L 0 3.5 
" id="m3d96d8fce9" style="stroke:#000000;stroke-width:0.8;"/>
      </defs>
      <g>
       <use style="stroke:#000000;stroke-width:0.8;" x="73.832727" xlink:href="#m3d96d8fce9" y="307.584"/>
      </g>
     </g>
     <g id="text_1">
      <!-- 0 -->
      <defs>
       <path d="M 31.78125 66.40625 
Q 24.171875 66.40625 20.328125 58.90625 
Q 16.5 51.421875 16.5 36.375 
Q 16.5 21.390625 20.328125 13.890625 
Q 24.171875 6.390625 31.78125 6.390625 
Q 39.453125 6.390625 43.28125 13.890625 
Q 47.125 21.390625 47.125 36.375 
Q 47.125 51.421875 43.28125 58.90625 
Q 39.453125 66.40625 31.78125 66.40625 
z
M 31.78125 74.21875 
Q 44.046875 74.21875 50.515625 64.515625 
Q 56.984375 54.828125 56.984375 36.375 
Q 56.984375 17.96875 50.515625 8.265625 
Q 44.046875 -1.421875 31.78125 -1.421875 
Q 19.53125 -1.421875 13.0625 8.265625 
Q 6.59375 17.96875 6.59375 36.375 
Q 6.59375 54.828125 13.0625 64.515625 
Q 19.53125 74.21875 31.78125 74.21875 
z
" id="DejaVuSans-48"/>
      </defs>
      <g transform="translate(70.651477 322.182437)scale(0.1 -0.1)">
       <use xlink:href="#DejaVuSans-48"/>
      </g>
     </g>
    </g>
    <g id="xtick_2">
     <g id="line2d_2">
      <g>
       <use style="stroke:#000000;stroke-width:0.8;" x="114.59284" xlink:href="#m3d96d8fce9" y="307.584"/>
      </g>
     </g>
     <g id="text_2">
      <!-- 1 -->
      <defs>
       <path d="M 12.40625 8.296875 
L 28.515625 8.296875 
L 28.515625 63.921875 
L 10.984375 60.40625 
L 10.984375 69.390625 
L 28.421875 72.90625 
L 38.28125 72.90625 
L 38.28125 8.296875 
L 54.390625 8.296875 
L 54.390625 0 
L 12.40625 0 
z
" id="DejaVuSans-49"/>
      </defs>
      <g transform="translate(111.41159 322.182437)scale(0.1 -0.1)">
       <use xlink:href="#DejaVuSans-49"/>
      </g>
     </g>
    </g>
    <g id="xtick_3">
     <g id="line2d_3">
      <g>
       <use style="stroke:#000000;stroke-width:0.8;" x="155.352953" xlink:href="#m3d96d8fce9" y="307.584"/>
      </g>
     </g>
     <g id="text_3">
      <!-- 2 -->
      <defs>
       <path d="M 19.1875 8.296875 
L 53.609375 8.296875 
L 53.609375 0 
L 7.328125 0 
L 7.328125 8.296875 
Q 12.9375 14.109375 22.625 23.890625 
Q 32.328125 33.6875 34.8125 36.53125 
Q 39.546875 41.84375 41.421875 45.53125 
Q 43.3125 49.21875 43.3125 52.78125 
Q 43.3125 58.59375 39.234375 62.25 
Q 35.15625 65.921875 28.609375 65.921875 
Q 23.96875 65.921875 18.8125 64.3125 
Q 13.671875 62.703125 7.8125 59.421875 
L 7.8125 69.390625 
Q 13.765625 71.78125 18.9375 73 
Q 24.125 74.21875 28.421875 74.21875 
Q 39.75 74.21875 46.484375 68.546875 
Q 53.21875 62.890625 53.21875 53.421875 
Q 53.21875 48.921875 51.53125 44.890625 
Q 49.859375 40.875 45.40625 35.40625 
Q 44.1875 33.984375 37.640625 27.21875 
Q 31.109375 20.453125 19.1875 8.296875 
z
" id="DejaVuSans-50"/>
      </defs>
      <g transform="translate(152.171703 322.182437)scale(0.1 -0.1)">
       <use xlink:href="#DejaVuSans-50"/>
      </g>
     </g>
    </g>
    <g id="xtick_4">
     <g id="line2d_4">
      <g>
       <use style="stroke:#000000;stroke-width:0.8;" x="196.113066" xlink:href="#m3d96d8fce9" y="307.584"/>
      </g>
     </g>
     <g id="text_4">
      <!-- 3 -->
      <defs>
       <path d="M 40.578125 39.3125 
Q 47.65625 37.796875 51.625 33 
Q 55.609375 28.21875 55.609375 21.1875 
Q 55.609375 10.40625 48.1875 4.484375 
Q 40.765625 -1.421875 27.09375 -1.421875 
Q 22.515625 -1.421875 17.65625 -0.515625 
Q 12.796875 0.390625 7.625 2.203125 
L 7.625 11.71875 
Q 11.71875 9.328125 16.59375 8.109375 
Q 21.484375 6.890625 26.8125 6.890625 
Q 36.078125 6.890625 40.9375 10.546875 
Q 45.796875 14.203125 45.796875 21.1875 
Q 45.796875 27.640625 41.28125 31.265625 
Q 36.765625 34.90625 28.71875 34.90625 
L 20.21875 34.90625 
L 20.21875 43.015625 
L 29.109375 43.015625 
Q 36.375 43.015625 40.234375 45.921875 
Q 44.09375 48.828125 44.09375 54.296875 
Q 44.09375 59.90625 40.109375 62.90625 
Q 36.140625 65.921875 28.71875 65.921875 
Q 24.65625 65.921875 20.015625 65.03125 
Q 15.375 64.15625 9.8125 62.3125 
L 9.8125 71.09375 
Q 15.4375 72.65625 20.34375 73.4375 
Q 25.25 74.21875 29.59375 74.21875 
Q 40.828125 74.21875 47.359375 69.109375 
Q 53.90625 64.015625 53.90625 55.328125 
Q 53.90625 49.265625 50.4375 45.09375 
Q 46.96875 40.921875 40.578125 39.3125 
z
" id="DejaVuSans-51"/>
      </defs>
      <g transform="translate(192.931816 322.182437)scale(0.1 -0.1)">
       <use xlink:href="#DejaVuSans-51"/>
      </g>
     </g>
    </g>
    <g id="xtick_5">
     <g id="line2d_5">
      <g>
       <use style="stroke:#000000;stroke-width:0.8;" x="236.873179" xlink:href="#m3d96d8fce9" y="307.584"/>
      </g>
     </g>
     <g id="text_5">
      <!-- 4 -->
      <defs>
       <path d="M 37.796875 64.3125 
L 12.890625 25.390625 
L 37.796875 25.390625 
z
M 35.203125 72.90625 
L 47.609375 72.90625 
L 47.609375 25.390625 
L 58.015625 25.390625 
L 58.015625 17.1875 
L 47.609375 17.1875 
L 47.609375 0 
L 37.796875 0 
L 37.796875 17.1875 
L 4.890625 17.1875 
L 4.890625 26.703125 
z
" id="DejaVuSans-52"/>
      </defs>
      <g transform="translate(233.691929 322.182437)scale(0.1 -0.1)">
       <use xlink:href="#DejaVuSans-52"/>
      </g>
     </g>
    </g>
    <g id="xtick_6">
     <g id="line2d_6">
      <g>
       <use style="stroke:#000000;stroke-width:0.8;" x="277.633292" xlink:href="#m3d96d8fce9" y="307.584"/>
      </g>
     </g>
     <g id="text_6">
      <!-- 5 -->
      <defs>
       <path d="M 10.796875 72.90625 
L 49.515625 72.90625 
L 49.515625 64.59375 
L 19.828125 64.59375 
L 19.828125 46.734375 
Q 21.96875 47.46875 24.109375 47.828125 
Q 26.265625 48.1875 28.421875 48.1875 
Q 40.625 48.1875 47.75 41.5 
Q 54.890625 34.8125 54.890625 23.390625 
Q 54.890625 11.625 47.5625 5.09375 
Q 40.234375 -1.421875 26.90625 -1.421875 
Q 22.3125 -1.421875 17.546875 -0.640625 
Q 12.796875 0.140625 7.71875 1.703125 
L 7.71875 11.625 
Q 12.109375 9.234375 16.796875 8.0625 
Q 21.484375 6.890625 26.703125 6.890625 
Q 35.15625 6.890625 40.078125 11.328125 
Q 45.015625 15.765625 45.015625 23.390625 
Q 45.015625 31 40.078125 35.4375 
Q 35.15625 39.890625 26.703125 39.890625 
Q 22.75 39.890625 18.8125 39.015625 
Q 14.890625 38.140625 10.796875 36.28125 
z
" id="DejaVuSans-53"/>
      </defs>
      <g transform="translate(274.452042 322.182437)scale(0.1 -0.1)">
       <use xlink:href="#DejaVuSans-53"/>
      </g>
     </g>
    </g>
    <g id="xtick_7">
     <g id="line2d_7">
      <g>
       <use style="stroke:#000000;stroke-width:0.8;" x="318.393404" xlink:href="#m3d96d8fce9" y="307.584"/>
      </g>
     </g>
     <g id="text_7">
      <!-- 6 -->
      <defs>
       <path d="M 33.015625 40.375 
Q 26.375 40.375 22.484375 35.828125 
Q 18.609375 31.296875 18.609375 23.390625 
Q 18.609375 15.53125 22.484375 10.953125 
Q 26.375 6.390625 33.015625 6.390625 
Q 39.65625 6.390625 43.53125 10.953125 
Q 47.40625 15.53125 47.40625 23.390625 
Q 47.40625 31.296875 43.53125 35.828125 
Q 39.65625 40.375 33.015625 40.375 
z
M 52.59375 71.296875 
L 52.59375 62.3125 
Q 48.875 64.0625 45.09375 64.984375 
Q 41.3125 65.921875 37.59375 65.921875 
Q 27.828125 65.921875 22.671875 59.328125 
Q 17.53125 52.734375 16.796875 39.40625 
Q 19.671875 43.65625 24.015625 45.921875 
Q 28.375 48.1875 33.59375 48.1875 
Q 44.578125 48.1875 50.953125 41.515625 
Q 57.328125 34.859375 57.328125 23.390625 
Q 57.328125 12.15625 50.6875 5.359375 
Q 44.046875 -1.421875 33.015625 -1.421875 
Q 20.359375 -1.421875 13.671875 8.265625 
Q 6.984375 17.96875 6.984375 36.375 
Q 6.984375 53.65625 15.1875 63.9375 
Q 23.390625 74.21875 37.203125 74.21875 
Q 40.921875 74.21875 44.703125 73.484375 
Q 48.484375 72.75 52.59375 71.296875 
z
" id="DejaVuSans-54"/>
      </defs>
      <g transform="translate(315.212154 322.182437)scale(0.1 -0.1)">
       <use xlink:href="#DejaVuSans-54"/>
      </g>
     </g>
    </g>
    <g id="xtick_8">
     <g id="line2d_8">
      <g>
       <use style="stroke:#000000;stroke-width:0.8;" x="359.153517" xlink:href="#m3d96d8fce9" y="307.584"/>
      </g>
     </g>
     <g id="text_8">
      <!-- 7 -->
      <defs>
       <path d="M 8.203125 72.90625 
L 55.078125 72.90625 
L 55.078125 68.703125 
L 28.609375 0 
L 18.3125 0 
L 43.21875 64.59375 
L 8.203125 64.59375 
z
" id="DejaVuSans-55"/>
      </defs>
      <g transform="translate(355.972267 322.182437)scale(0.1 -0.1)">
       <use xlink:href="#DejaVuSans-55"/>
      </g>
     </g>
    </g>
    <g id="xtick_9">
     <g id="line2d_9">
      <g>
       <use style="stroke:#000000;stroke-width:0.8;" x="399.91363" xlink:href="#m3d96d8fce9" y="307.584"/>
      </g>
     </g>
     <g id="text_9">
      <!-- 8 -->
      <defs>
       <path d="M 31.78125 34.625 
Q 24.75 34.625 20.71875 30.859375 
Q 16.703125 27.09375 16.703125 20.515625 
Q 16.703125 13.921875 20.71875 10.15625 
Q 24.75 6.390625 31.78125 6.390625 
Q 38.8125 6.390625 42.859375 10.171875 
Q 46.921875 13.96875 46.921875 20.515625 
Q 46.921875 27.09375 42.890625 30.859375 
Q 38.875 34.625 31.78125 34.625 
z
M 21.921875 38.8125 
Q 15.578125 40.375 12.03125 44.71875 
Q 8.5 49.078125 8.5 55.328125 
Q 8.5 64.0625 14.71875 69.140625 
Q 20.953125 74.21875 31.78125 74.21875 
Q 42.671875 74.21875 48.875 69.140625 
Q 55.078125 64.0625 55.078125 55.328125 
Q 55.078125 49.078125 51.53125 44.71875 
Q 48 40.375 41.703125 38.8125 
Q 48.828125 37.15625 52.796875 32.3125 
Q 56.78125 27.484375 56.78125 20.515625 
Q 56.78125 9.90625 50.3125 4.234375 
Q 43.84375 -1.421875 31.78125 -1.421875 
Q 19.734375 -1.421875 13.25 4.234375 
Q 6.78125 9.90625 6.78125 20.515625 
Q 6.78125 27.484375 10.78125 32.3125 
Q 14.796875 37.15625 21.921875 38.8125 
z
M 18.3125 54.390625 
Q 18.3125 48.734375 21.84375 45.5625 
Q 25.390625 42.390625 31.78125 42.390625 
Q 38.140625 42.390625 41.71875 45.5625 
Q 45.3125 48.734375 45.3125 54.390625 
Q 45.3125 60.0625 41.71875 63.234375 
Q 38.140625 66.40625 31.78125 66.40625 
Q 25.390625 66.40625 21.84375 63.234375 
Q 18.3125 60.0625 18.3125 54.390625 
z
" id="DejaVuSans-56"/>
      </defs>
      <g transform="translate(396.73238 322.182437)scale(0.1 -0.1)">
       <use xlink:href="#DejaVuSans-56"/>
      </g>
     </g>
    </g>
    <g id="text_10">
     <!-- Vertex Set Size -->
     <defs>
      <path d="M 28.609375 0 
L 0.78125 72.90625 
L 11.078125 72.90625 
L 34.1875 11.53125 
L 57.328125 72.90625 
L 67.578125 72.90625 
L 39.796875 0 
z
" id="DejaVuSans-86"/>
      <path d="M 56.203125 29.59375 
L 56.203125 25.203125 
L 14.890625 25.203125 
Q 15.484375 15.921875 20.484375 11.0625 
Q 25.484375 6.203125 34.421875 6.203125 
Q 39.59375 6.203125 44.453125 7.46875 
Q 49.3125 8.734375 54.109375 11.28125 
L 54.109375 2.78125 
Q 49.265625 0.734375 44.1875 -0.34375 
Q 39.109375 -1.421875 33.890625 -1.421875 
Q 20.796875 -1.421875 13.15625 6.1875 
Q 5.515625 13.8125 5.515625 26.8125 
Q 5.515625 40.234375 12.765625 48.109375 
Q 20.015625 56 32.328125 56 
Q 43.359375 56 49.78125 48.890625 
Q 56.203125 41.796875 56.203125 29.59375 
z
M 47.21875 32.234375 
Q 47.125 39.59375 43.09375 43.984375 
Q 39.0625 48.390625 32.421875 48.390625 
Q 24.90625 48.390625 20.390625 44.140625 
Q 15.875 39.890625 15.1875 32.171875 
z
" id="DejaVuSans-101"/>
      <path d="M 41.109375 46.296875 
Q 39.59375 47.171875 37.8125 47.578125 
Q 36.03125 48 33.890625 48 
Q 26.265625 48 22.1875 43.046875 
Q 18.109375 38.09375 18.109375 28.8125 
L 18.109375 0 
L 9.078125 0 
L 9.078125 54.6875 
L 18.109375 54.6875 
L 18.109375 46.1875 
Q 20.953125 51.171875 25.484375 53.578125 
Q 30.03125 56 36.53125 56 
Q 37.453125 56 38.578125 55.875 
Q 39.703125 55.765625 41.0625 55.515625 
z
" id="DejaVuSans-114"/>
      <path d="M 18.3125 70.21875 
L 18.3125 54.6875 
L 36.8125 54.6875 
L 36.8125 47.703125 
L 18.3125 47.703125 
L 18.3125 18.015625 
Q 18.3125 11.328125 20.140625 9.421875 
Q 21.96875 7.515625 27.59375 7.515625 
L 36.8125 7.515625 
L 36.8125 0 
L 27.59375 0 
Q 17.1875 0 13.234375 3.875 
Q 9.28125 7.765625 9.28125 18.015625 
L 9.28125 47.703125 
L 2.6875 47.703125 
L 2.6875 54.6875 
L 9.28125 54.6875 
L 9.28125 70.21875 
z
" id="DejaVuSans-116"/>
      <path d="M 54.890625 54.6875 
L 35.109375 28.078125 
L 55.90625 0 
L 45.3125 0 
L 29.390625 21.484375 
L 13.484375 0 
L 2.875 0 
L 24.125 28.609375 
L 4.6875 54.6875 
L 15.28125 54.6875 
L 29.78125 35.203125 
L 44.28125 54.6875 
z
" id="DejaVuSans-120"/>
      <path id="DejaVuSans-32"/>
      <path d="M 53.515625 70.515625 
L 53.515625 60.890625 
Q 47.90625 63.578125 42.921875 64.890625 
Q 37.9375 66.21875 33.296875 66.21875 
Q 25.25 66.21875 20.875 63.09375 
Q 16.5 59.96875 16.5 54.203125 
Q 16.5 49.359375 19.40625 46.890625 
Q 22.3125 44.4375 30.421875 42.921875 
L 36.375 41.703125 
Q 47.40625 39.59375 52.65625 34.296875 
Q 57.90625 29 57.90625 20.125 
Q 57.90625 9.515625 50.796875 4.046875 
Q 43.703125 -1.421875 29.984375 -1.421875 
Q 24.8125 -1.421875 18.96875 -0.25 
Q 13.140625 0.921875 6.890625 3.21875 
L 6.890625 13.375 
Q 12.890625 10.015625 18.65625 8.296875 
Q 24.421875 6.59375 29.984375 6.59375 
Q 38.421875 6.59375 43.015625 9.90625 
Q 47.609375 13.234375 47.609375 19.390625 
Q 47.609375 24.75 44.3125 27.78125 
Q 41.015625 30.8125 33.5 32.328125 
L 27.484375 33.5 
Q 16.453125 35.6875 11.515625 40.375 
Q 6.59375 45.0625 6.59375 53.421875 
Q 6.59375 63.09375 13.40625 68.65625 
Q 20.21875 74.21875 32.171875 74.21875 
Q 37.3125 74.21875 42.625 73.28125 
Q 47.953125 72.359375 53.515625 70.515625 
z
" id="DejaVuSans-83"/>
      <path d="M 9.421875 54.6875 
L 18.40625 54.6875 
L 18.40625 0 
L 9.421875 0 
z
M 9.421875 75.984375 
L 18.40625 75.984375 
L 18.40625 64.59375 
L 9.421875 64.59375 
z
" id="DejaVuSans-105"/>
      <path d="M 5.515625 54.6875 
L 48.1875 54.6875 
L 48.1875 46.484375 
L 14.40625 7.171875 
L 48.1875 7.171875 
L 48.1875 0 
L 4.296875 0 
L 4.296875 8.203125 
L 38.09375 47.515625 
L 5.515625 47.515625 
z
" id="DejaVuSans-122"/>
     </defs>
     <g transform="translate(197.964687 338.860562)scale(0.1 -0.1)">
      <use xlink:href="#DejaVuSans-86"/>
      <use x="68.298828" xlink:href="#DejaVuSans-101"/>
      <use x="129.822266" xlink:href="#DejaVuSans-114"/>
      <use x="170.935547" xlink:href="#DejaVuSans-116"/>
      <use x="210.144531" xlink:href="#DejaVuSans-101"/>
      <use x="271.652344" xlink:href="#DejaVuSans-120"/>
      <use x="330.832031" xlink:href="#DejaVuSans-32"/>
      <use x="362.619141" xlink:href="#DejaVuSans-83"/>
      <use x="426.095703" xlink:href="#DejaVuSans-101"/>
      <use x="487.619141" xlink:href="#DejaVuSans-116"/>
      <use x="526.828125" xlink:href="#DejaVuSans-32"/>
      <use x="558.615234" xlink:href="#DejaVuSans-83"/>
      <use x="622.091797" xlink:href="#DejaVuSans-105"/>
      <use x="649.875" xlink:href="#DejaVuSans-122"/>
      <use x="702.365234" xlink:href="#DejaVuSans-101"/>
     </g>
    </g>
    <g id="text_11">
     <!-- 1e3 -->
     <g transform="translate(395.841875 334.860562)scale(0.1 -0.1)">
      <use xlink:href="#DejaVuSans-49"/>
      <use x="63.623047" xlink:href="#DejaVuSans-101"/>
      <use x="125.146484" xlink:href="#DejaVuSans-51"/>
     </g>
    </g>
   </g>
   <g id="matplotlib.axis_2">
    <g id="ytick_1">
     <g id="line2d_10">
      <defs>
       <path d="M 0 0 
L -3.5 0 
" id="m11459d7135" style="stroke:#000000;stroke-width:0.8;"/>
      </defs>
      <g>
       <use style="stroke:#000000;stroke-width:0.8;" x="57.6" xlink:href="#m11459d7135" y="281.407591"/>
      </g>
     </g>
     <g id="text_12">
      <!-- 0.00 -->
      <defs>
       <path d="M 10.6875 12.40625 
L 21 12.40625 
L 21 0 
L 10.6875 0 
z
" id="DejaVuSans-46"/>
      </defs>
      <g transform="translate(28.334375 285.20681)scale(0.1 -0.1)">
       <use xlink:href="#DejaVuSans-48"/>
       <use x="63.623047" xlink:href="#DejaVuSans-46"/>
       <use x="95.410156" xlink:href="#DejaVuSans-48"/>
       <use x="159.033203" xlink:href="#DejaVuSans-48"/>
      </g>
     </g>
    </g>
    <g id="ytick_2">
     <g id="line2d_11">
      <g>
       <use style="stroke:#000000;stroke-width:0.8;" x="57.6" xlink:href="#m11459d7135" y="246.698402"/>
      </g>
     </g>
     <g id="text_13">
      <!-- 0.02 -->
      <g transform="translate(28.334375 250.497621)scale(0.1 -0.1)">
       <use xlink:href="#DejaVuSans-48"/>
       <use x="63.623047" xlink:href="#DejaVuSans-46"/>
       <use x="95.410156" xlink:href="#DejaVuSans-48"/>
       <use x="159.033203" xlink:href="#DejaVuSans-50"/>
      </g>
     </g>
    </g>
    <g id="ytick_3">
     <g id="line2d_12">
      <g>
       <use style="stroke:#000000;stroke-width:0.8;" x="57.6" xlink:href="#m11459d7135" y="211.989213"/>
      </g>
     </g>
     <g id="text_14">
      <!-- 0.04 -->
      <g transform="translate(28.334375 215.788432)scale(0.1 -0.1)">
       <use xlink:href="#DejaVuSans-48"/>
       <use x="63.623047" xlink:href="#DejaVuSans-46"/>
       <use x="95.410156" xlink:href="#DejaVuSans-48"/>
       <use x="159.033203" xlink:href="#DejaVuSans-52"/>
      </g>
     </g>
    </g>
    <g id="ytick_4">
     <g id="line2d_13">
      <g>
       <use style="stroke:#000000;stroke-width:0.8;" x="57.6" xlink:href="#m11459d7135" y="177.280024"/>
      </g>
     </g>
     <g id="text_15">
      <!-- 0.06 -->
      <g transform="translate(28.334375 181.079243)scale(0.1 -0.1)">
       <use xlink:href="#DejaVuSans-48"/>
       <use x="63.623047" xlink:href="#DejaVuSans-46"/>
       <use x="95.410156" xlink:href="#DejaVuSans-48"/>
       <use x="159.033203" xlink:href="#DejaVuSans-54"/>
      </g>
     </g>
    </g>
    <g id="ytick_5">
     <g id="line2d_14">
      <g>
       <use style="stroke:#000000;stroke-width:0.8;" x="57.6" xlink:href="#m11459d7135" y="142.570835"/>
      </g>
     </g>
     <g id="text_16">
      <!-- 0.08 -->
      <g transform="translate(28.334375 146.370054)scale(0.1 -0.1)">
       <use xlink:href="#DejaVuSans-48"/>
       <use x="63.623047" xlink:href="#DejaVuSans-46"/>
       <use x="95.410156" xlink:href="#DejaVuSans-48"/>
       <use x="159.033203" xlink:href="#DejaVuSans-56"/>
      </g>
     </g>
    </g>
    <g id="ytick_6">
     <g id="line2d_15">
      <g>
       <use style="stroke:#000000;stroke-width:0.8;" x="57.6" xlink:href="#m11459d7135" y="107.861646"/>
      </g>
     </g>
     <g id="text_17">
      <!-- 0.10 -->
      <g transform="translate(28.334375 111.660865)scale(0.1 -0.1)">
       <use xlink:href="#DejaVuSans-48"/>
       <use x="63.623047" xlink:href="#DejaVuSans-46"/>
       <use x="95.410156" xlink:href="#DejaVuSans-49"/>
       <use x="159.033203" xlink:href="#DejaVuSans-48"/>
      </g>
     </g>
    </g>
    <g id="ytick_7">
     <g id="line2d_16">
      <g>
       <use style="stroke:#000000;stroke-width:0.8;" x="57.6" xlink:href="#m11459d7135" y="73.152457"/>
      </g>
     </g>
     <g id="text_18">
      <!-- 0.12 -->
      <g transform="translate(28.334375 76.951676)scale(0.1 -0.1)">
       <use xlink:href="#DejaVuSans-48"/>
       <use x="63.623047" xlink:href="#DejaVuSans-46"/>
       <use x="95.410156" xlink:href="#DejaVuSans-49"/>
       <use x="159.033203" xlink:href="#DejaVuSans-50"/>
      </g>
     </g>
    </g>
    <g id="text_19">
     <!-- Execution Time (s) -->
     <defs>
      <path d="M 9.8125 72.90625 
L 55.90625 72.90625 
L 55.90625 64.59375 
L 19.671875 64.59375 
L 19.671875 43.015625 
L 54.390625 43.015625 
L 54.390625 34.71875 
L 19.671875 34.71875 
L 19.671875 8.296875 
L 56.78125 8.296875 
L 56.78125 0 
L 9.8125 0 
z
" id="DejaVuSans-69"/>
      <path d="M 48.78125 52.59375 
L 48.78125 44.1875 
Q 44.96875 46.296875 41.140625 47.34375 
Q 37.3125 48.390625 33.40625 48.390625 
Q 24.65625 48.390625 19.8125 42.84375 
Q 14.984375 37.3125 14.984375 27.296875 
Q 14.984375 17.28125 19.8125 11.734375 
Q 24.65625 6.203125 33.40625 6.203125 
Q 37.3125 6.203125 41.140625 7.25 
Q 44.96875 8.296875 48.78125 10.40625 
L 48.78125 2.09375 
Q 45.015625 0.34375 40.984375 -0.53125 
Q 36.96875 -1.421875 32.421875 -1.421875 
Q 20.0625 -1.421875 12.78125 6.34375 
Q 5.515625 14.109375 5.515625 27.296875 
Q 5.515625 40.671875 12.859375 48.328125 
Q 20.21875 56 33.015625 56 
Q 37.15625 56 41.109375 55.140625 
Q 45.0625 54.296875 48.78125 52.59375 
z
" id="DejaVuSans-99"/>
      <path d="M 8.5 21.578125 
L 8.5 54.6875 
L 17.484375 54.6875 
L 17.484375 21.921875 
Q 17.484375 14.15625 20.5 10.265625 
Q 23.53125 6.390625 29.59375 6.390625 
Q 36.859375 6.390625 41.078125 11.03125 
Q 45.3125 15.671875 45.3125 23.6875 
L 45.3125 54.6875 
L 54.296875 54.6875 
L 54.296875 0 
L 45.3125 0 
L 45.3125 8.40625 
Q 42.046875 3.421875 37.71875 1 
Q 33.40625 -1.421875 27.6875 -1.421875 
Q 18.265625 -1.421875 13.375 4.4375 
Q 8.5 10.296875 8.5 21.578125 
z
M 31.109375 56 
z
" id="DejaVuSans-117"/>
      <path d="M 30.609375 48.390625 
Q 23.390625 48.390625 19.1875 42.75 
Q 14.984375 37.109375 14.984375 27.296875 
Q 14.984375 17.484375 19.15625 11.84375 
Q 23.34375 6.203125 30.609375 6.203125 
Q 37.796875 6.203125 41.984375 11.859375 
Q 46.1875 17.53125 46.1875 27.296875 
Q 46.1875 37.015625 41.984375 42.703125 
Q 37.796875 48.390625 30.609375 48.390625 
z
M 30.609375 56 
Q 42.328125 56 49.015625 48.375 
Q 55.71875 40.765625 55.71875 27.296875 
Q 55.71875 13.875 49.015625 6.21875 
Q 42.328125 -1.421875 30.609375 -1.421875 
Q 18.84375 -1.421875 12.171875 6.21875 
Q 5.515625 13.875 5.515625 27.296875 
Q 5.515625 40.765625 12.171875 48.375 
Q 18.84375 56 30.609375 56 
z
" id="DejaVuSans-111"/>
      <path d="M 54.890625 33.015625 
L 54.890625 0 
L 45.90625 0 
L 45.90625 32.71875 
Q 45.90625 40.484375 42.875 44.328125 
Q 39.84375 48.1875 33.796875 48.1875 
Q 26.515625 48.1875 22.3125 43.546875 
Q 18.109375 38.921875 18.109375 30.90625 
L 18.109375 0 
L 9.078125 0 
L 9.078125 54.6875 
L 18.109375 54.6875 
L 18.109375 46.1875 
Q 21.34375 51.125 25.703125 53.5625 
Q 30.078125 56 35.796875 56 
Q 45.21875 56 50.046875 50.171875 
Q 54.890625 44.34375 54.890625 33.015625 
z
" id="DejaVuSans-110"/>
      <path d="M -0.296875 72.90625 
L 61.375 72.90625 
L 61.375 64.59375 
L 35.5 64.59375 
L 35.5 0 
L 25.59375 0 
L 25.59375 64.59375 
L -0.296875 64.59375 
z
" id="DejaVuSans-84"/>
      <path d="M 52 44.1875 
Q 55.375 50.25 60.0625 53.125 
Q 64.75 56 71.09375 56 
Q 79.640625 56 84.28125 50.015625 
Q 88.921875 44.046875 88.921875 33.015625 
L 88.921875 0 
L 79.890625 0 
L 79.890625 32.71875 
Q 79.890625 40.578125 77.09375 44.375 
Q 74.3125 48.1875 68.609375 48.1875 
Q 61.625 48.1875 57.5625 43.546875 
Q 53.515625 38.921875 53.515625 30.90625 
L 53.515625 0 
L 44.484375 0 
L 44.484375 32.71875 
Q 44.484375 40.625 41.703125 44.40625 
Q 38.921875 48.1875 33.109375 48.1875 
Q 26.21875 48.1875 22.15625 43.53125 
Q 18.109375 38.875 18.109375 30.90625 
L 18.109375 0 
L 9.078125 0 
L 9.078125 54.6875 
L 18.109375 54.6875 
L 18.109375 46.1875 
Q 21.1875 51.21875 25.484375 53.609375 
Q 29.78125 56 35.6875 56 
Q 41.65625 56 45.828125 52.96875 
Q 50 49.953125 52 44.1875 
z
" id="DejaVuSans-109"/>
      <path d="M 31 75.875 
Q 24.46875 64.65625 21.28125 53.65625 
Q 18.109375 42.671875 18.109375 31.390625 
Q 18.109375 20.125 21.3125 9.0625 
Q 24.515625 -2 31 -13.1875 
L 23.1875 -13.1875 
Q 15.875 -1.703125 12.234375 9.375 
Q 8.59375 20.453125 8.59375 31.390625 
Q 8.59375 42.28125 12.203125 53.3125 
Q 15.828125 64.359375 23.1875 75.875 
z
" id="DejaVuSans-40"/>
      <path d="M 44.28125 53.078125 
L 44.28125 44.578125 
Q 40.484375 46.53125 36.375 47.5 
Q 32.28125 48.484375 27.875 48.484375 
Q 21.1875 48.484375 17.84375 46.4375 
Q 14.5 44.390625 14.5 40.28125 
Q 14.5 37.15625 16.890625 35.375 
Q 19.28125 33.59375 26.515625 31.984375 
L 29.59375 31.296875 
Q 39.15625 29.25 43.1875 25.515625 
Q 47.21875 21.78125 47.21875 15.09375 
Q 47.21875 7.46875 41.1875 3.015625 
Q 35.15625 -1.421875 24.609375 -1.421875 
Q 20.21875 -1.421875 15.453125 -0.5625 
Q 10.6875 0.296875 5.421875 2 
L 5.421875 11.28125 
Q 10.40625 8.6875 15.234375 7.390625 
Q 20.0625 6.109375 24.8125 6.109375 
Q 31.15625 6.109375 34.5625 8.28125 
Q 37.984375 10.453125 37.984375 14.40625 
Q 37.984375 18.0625 35.515625 20.015625 
Q 33.0625 21.96875 24.703125 23.78125 
L 21.578125 24.515625 
Q 13.234375 26.265625 9.515625 29.90625 
Q 5.8125 33.546875 5.8125 39.890625 
Q 5.8125 47.609375 11.28125 51.796875 
Q 16.75 56 26.8125 56 
Q 31.78125 56 36.171875 55.265625 
Q 40.578125 54.546875 44.28125 53.078125 
z
" id="DejaVuSans-115"/>
      <path d="M 8.015625 75.875 
L 15.828125 75.875 
Q 23.140625 64.359375 26.78125 53.3125 
Q 30.421875 42.28125 30.421875 31.390625 
Q 30.421875 20.453125 26.78125 9.375 
Q 23.140625 -1.703125 15.828125 -13.1875 
L 8.015625 -13.1875 
Q 14.5 -2 17.703125 9.0625 
Q 20.90625 20.125 20.90625 31.390625 
Q 20.90625 42.671875 17.703125 53.65625 
Q 14.5 64.65625 8.015625 75.875 
z
" id="DejaVuSans-41"/>
     </defs>
     <g transform="translate(19.254687 221.288156)rotate(-90)scale(0.1 -0.1)">
      <use xlink:href="#DejaVuSans-69"/>
      <use x="63.183594" xlink:href="#DejaVuSans-120"/>
      <use x="122.316406" xlink:href="#DejaVuSans-101"/>
      <use x="183.839844" xlink:href="#DejaVuSans-99"/>
      <use x="238.820312" xlink:href="#DejaVuSans-117"/>
      <use x="302.199219" xlink:href="#DejaVuSans-116"/>
      <use x="341.408203" xlink:href="#DejaVuSans-105"/>
      <use x="369.191406" xlink:href="#DejaVuSans-111"/>
      <use x="430.373047" xlink:href="#DejaVuSans-110"/>
      <use x="493.751953" xlink:href="#DejaVuSans-32"/>
      <use x="525.539062" xlink:href="#DejaVuSans-84"/>
      <use x="586.576172" xlink:href="#DejaVuSans-105"/>
      <use x="614.359375" xlink:href="#DejaVuSans-109"/>
      <use x="711.771484" xlink:href="#DejaVuSans-101"/>
      <use x="773.294922" xlink:href="#DejaVuSans-32"/>
      <use x="805.082031" xlink:href="#DejaVuSans-40"/>
      <use x="844.095703" xlink:href="#DejaVuSans-115"/>
      <use x="896.195312" xlink:href="#DejaVuSans-41"/>
     </g>
    </g>
   </g>
   <g id="line2d_17">
    <path clip-path="url(#pec48c02185)" d="M 73.832727 281.410718 
L 82.718432 280.899108 
L 91.604136 280.164845 
L 100.489841 279.207929 
L 109.416306 278.022436 
L 118.342771 276.612243 
L 127.269235 274.97735 
L 136.27722 273.100805 
L 147.690052 270.480777 
L 159.143643 267.623196 
L 170.637995 264.525623 
L 178.219376 262.293344 
L 181.847026 260.949139 
L 185.515437 259.349553 
L 189.224607 257.486533 
L 192.974537 255.351935 
L 196.765228 252.937527 
L 200.637438 250.204818 
L 204.550409 247.169866 
L 208.5449 243.788127 
L 212.620912 240.04206 
L 217.023004 235.67994 
L 221.384336 231.482204 
L 225.664148 227.670331 
L 229.862439 224.226921 
L 233.979211 221.134904 
L 238.014462 218.377545 
L 242.008953 215.914644 
L 245.962684 213.738083 
L 249.834895 211.858285 
L 253.666345 210.243614 
L 263.163452 206.427832 
L 266.465021 204.675435 
L 269.80735 202.647831 
L 273.190439 200.335686 
L 276.655049 197.696914 
L 280.201179 194.712164 
L 283.788069 191.400946 
L 287.456479 187.71055 
L 291.206409 183.620486 
L 295.03786 179.109811 
L 299.521472 173.459163 
L 308.325657 162.016313 
L 317.252121 150.04746 
L 326.260106 137.594621 
L 335.349611 124.647575 
L 342.930992 113.883178 
L 347.373845 108.042722 
L 351.735177 102.671874 
L 356.014989 97.750499 
L 360.21328 93.258837 
L 364.330052 89.177506 
L 368.365303 85.487498 
L 372.319034 82.170183 
L 376.191244 79.207308 
L 380.022695 76.554229 
L 383.772625 74.22595 
L 387.481796 72.184131 
L 391.109446 70.438415 
L 394.696336 68.956578 
L 398.242466 67.730339 
L 398.446266 67.667079 
L 398.446266 67.667079 
" style="fill:none;stroke:#1f77b4;stroke-linecap:square;stroke-width:1.5;"/>
   </g>
   <g id="line2d_18">
    <path clip-path="url(#pec48c02185)" d="M 73.832727 281.40672 
L 107.25602 281.345664 
L 109.294025 281.344303 
L 213.069273 281.05228 
L 213.354594 280.974879 
L 214.251316 281.094261 
L 214.821958 281.051985 
L 216.615403 281.128263 
L 217.186044 281.095596 
L 217.634405 281.094321 
L 218.327327 281.062994 
L 218.857209 281.129177 
L 221.628896 281.108511 
L 221.954977 281.120941 
L 222.444099 281.040804 
L 223.0555 281.084684 
L 226.316309 281.107401 
L 227.742913 281.120675 
L 229.577119 281.06793 
L 241.11223 281.113619 
L 241.682872 281.033497 
L 242.090473 281.057142 
L 242.783395 281.07266 
L 261.410767 281.073746 
L 262.144449 280.98457 
L 262.67433 281.05249 
L 263.571053 281.037494 
L 264.019414 281.025492 
L 264.549295 281.069682 
L 268.299226 281.060296 
L 269.522029 281.058638 
L 271.437754 281.046768 
L 272.905118 281.048884 
L 276.614289 280.992552 
L 278.163173 280.970524 
L 278.733815 280.975205 
L 279.182176 280.990723 
L 279.915858 281.007759 
L 280.64954 281.03431 
L 296.179143 280.932811 
L 296.709024 280.960046 
L 297.524227 281.009288 
L 300.377435 280.883031 
L 300.907316 280.834785 
L 301.763278 280.924408 
L 302.782281 280.924006 
L 303.638244 280.937654 
L 304.249645 280.997682 
L 315.051075 280.926173 
L 315.947798 280.917954 
L 344.602157 280.930844 
L 348.107527 280.918498 
L 349.493371 280.812045 
L 349.900972 280.682522 
L 350.553133 280.921851 
L 351.368336 280.89159 
L 352.102018 280.909497 
L 358.990477 280.855841 
L 359.398078 280.853547 
L 359.96872 280.902934 
L 360.824682 280.895802 
L 361.802925 280.894411 
L 366.816419 280.77294 
L 367.142499 280.787414 
L 367.631621 280.881595 
L 369.914187 280.812132 
L 370.362548 280.769067 
L 370.97395 280.870501 
L 378.799892 280.859 
L 379.941175 280.797628 
L 380.837897 280.863848 
L 382.631342 280.859193 
L 388.378518 280.800597 
L 388.826879 280.826747 
L 389.479041 280.833475 
L 390.416524 280.832833 
L 391.354006 280.790173 
L 392.006168 280.693524 
L 392.57681 280.827529 
L 394.044174 280.815332 
L 395.022417 280.774745 
L 398.446266 280.832058 
L 398.446266 280.832058 
" style="fill:none;stroke:#ff7f0e;stroke-linecap:square;stroke-width:1.5;"/>
   </g>
   <g id="line2d_19">
    <path clip-path="url(#pec48c02185)" d="M 73.832727 281.400254 
L 75.870733 280.786121 
L 77.745698 279.962963 
L 77.949499 279.927469 
L 78.153299 280.167051 
L 78.642421 280.835858 
L 78.927741 280.921793 
L 80.435866 280.651962 
L 81.373348 280.554315 
L 81.94399 280.50891 
L 82.555391 280.419542 
L 83.166793 280.279119 
L 84.593397 280.083792 
L 85.77544 279.929356 
L 91.196535 279.059748 
L 91.767177 278.983809 
L 93.234541 278.9685 
L 95.680148 278.459679 
L 95.924708 278.333364 
L 96.61763 278.37112 
L 96.943711 278.348144 
L 97.269792 278.281697 
L 97.595873 278.189635 
L 98.084994 278.214421 
L 98.492596 278.049333 
L 98.859437 277.958411 
L 99.389318 277.738957 
L 100.123 277.70224 
L 100.408321 277.480423 
L 100.612121 277.59535 
L 100.938202 277.740585 
L 101.386564 277.635126 
L 101.794165 277.565802 
L 102.324046 277.515989 
L 103.66913 277.316379 
L 104.117491 277.274872 
L 104.606612 277.064447 
L 104.810413 277.084837 
L 105.014214 276.827991 
L 105.258774 276.499104 
L 105.421815 276.612687 
L 105.747896 276.971825 
L 107.785901 276.719869 
L 108.234263 276.398996 
L 108.804904 276.499078 
L 110.353788 276.041634 
L 110.679869 276.252637 
L 111.128231 276.19085 
L 111.984193 276.020596 
L 112.269514 276.060917 
L 112.717875 275.813058 
L 113.125476 275.677087 
L 113.696118 275.657374 
L 114.022199 275.370796 
L 114.307519 275.185085 
L 114.59284 275.307945 
L 115.122722 275.529076 
L 115.937924 275.307754 
L 116.345525 275.260965 
L 116.793886 275.04818 
L 117.364528 275.150053 
L 117.853649 274.909315 
L 118.383531 274.597928 
L 118.954172 274.900587 
L 119.728614 274.678811 
L 121.155218 274.481945 
L 121.6851 273.959212 
L 122.255741 274.31564 
L 122.704103 274.163573 
L 123.356264 273.801366 
L 123.600825 273.627023 
L 123.763866 273.748579 
L 124.089946 274.0454 
L 124.375267 273.90432 
L 124.905149 273.749709 
L 125.638831 273.656751 
L 126.209472 273.326095 
L 126.454033 273.226149 
L 126.657834 273.396064 
L 126.943154 273.594866 
L 127.269235 273.45129 
L 128.165958 273.231116 
L 128.81812 273.076945 
L 129.388761 272.795735 
L 129.877882 273.062541 
L 130.448524 272.827538 
L 131.467527 272.525947 
L 131.875128 272.167359 
L 132.201209 272.268919 
L 132.64957 272.42992 
L 133.383252 272.11969 
L 134.198454 272.191954 
L 134.728336 271.887191 
L 135.298977 272.252388 
L 135.502778 272.075188 
L 135.910379 271.582446 
L 136.11418 271.767385 
L 136.440261 271.968977 
L 136.684821 271.883856 
L 137.214703 271.508111 
L 137.622304 271.695761 
L 138.029905 271.545343 
L 138.355986 271.46746 
L 139.048908 271.593055 
L 139.293469 271.233587 
L 139.538029 270.999481 
L 139.70107 271.154129 
L 139.94563 271.353746 
L 140.108671 271.243727 
L 140.679312 270.667544 
L 140.842353 270.760574 
L 141.209194 271.055217 
L 141.779835 270.82537 
L 142.065156 270.863158 
L 142.350477 270.663396 
L 142.798838 270.220351 
L 142.961879 270.488573 
L 143.206439 270.855855 
L 143.36948 270.823534 
L 143.736321 270.635024 
L 144.225442 270.4755 
L 144.592283 270.090932 
L 144.796084 269.967772 
L 144.959124 270.11445 
L 145.285205 270.475059 
L 145.489006 270.390979 
L 146.141167 270.051225 
L 146.467248 270.102328 
L 147.03789 269.768156 
L 147.445491 269.957285 
L 147.690052 269.896538 
L 148.219933 269.611705 
L 148.586774 269.688527 
L 149.483497 269.462978 
L 149.728057 269.479057 
L 150.217179 269.347016 
L 150.5025 269.526045 
L 150.66554 269.335596 
L 150.950861 268.979599 
L 151.113901 269.10455 
L 151.399222 269.34261 
L 151.643783 269.245224 
L 151.929104 268.849725 
L 152.132904 268.650315 
L 152.295945 268.760759 
L 152.581265 269.052708 
L 152.785066 268.932707 
L 153.029627 268.871945 
L 153.355707 268.961934 
L 153.559508 268.588559 
L 153.763309 268.306243 
L 153.885589 268.407382 
L 154.25243 268.883208 
L 154.496991 268.503035 
L 154.700791 268.428038 
L 155.108392 268.550312 
L 155.515993 268.300416 
L 155.964355 268.303266 
L 156.249675 268.201158 
L 156.779557 268.258171 
L 157.187158 267.987165 
L 157.553999 268.052073 
L 157.92084 268.134812 
L 158.817563 267.758696 
L 159.062123 267.563397 
L 159.225164 267.660501 
L 159.510485 267.87213 
L 159.714285 267.710369 
L 160.040366 267.504184 
L 162.567493 267.184597 
L 162.852814 267.115002 
L 163.138135 267.11997 
L 163.341935 266.791744 
L 163.545736 266.544526 
L 163.708776 266.677934 
L 164.034857 267.118099 
L 164.238658 267.069911 
L 164.523978 266.759454 
L 164.809299 266.493744 
L 165.0131 266.619705 
L 165.298421 266.739617 
L 166.195143 266.494561 
L 166.439704 266.291543 
L 166.643504 266.402253 
L 166.888065 266.459702 
L 168.110868 266.054002 
L 168.55923 266.19644 
L 168.966831 265.994091 
L 169.292912 266.004022 
L 169.782033 265.629377 
L 170.148874 265.865504 
L 170.637995 265.677538 
L 170.882556 265.801333 
L 171.086357 265.587041 
L 171.330917 265.342591 
L 171.534718 265.420852 
L 171.738518 265.438795 
L 172.34992 265.216376 
L 172.920562 265.547748 
L 173.124362 265.116423 
L 173.328163 264.75381 
L 173.450443 264.809097 
L 173.858044 265.260917 
L 174.265645 265.05962 
L 174.550966 265.16107 
L 174.754767 264.880917 
L 174.999327 264.627978 
L 175.162368 264.765282 
L 175.406929 264.982417 
L 175.610729 264.90367 
L 176.262891 264.431274 
L 176.792772 264.773064 
L 177.567214 264.358068 
L 177.852535 264.482976 
L 178.463937 264.34082 
L 178.667738 264.360924 
L 179.319899 264.079533 
L 179.56446 264.036219 
L 180.094341 263.75318 
L 180.461183 263.872448 
L 180.664983 263.868343 
L 180.868784 263.592427 
L 181.113344 263.369604 
L 181.276385 263.522572 
L 181.561706 263.803331 
L 181.806266 263.748718 
L 182.458428 263.430854 
L 182.825269 263.645117 
L 183.06983 263.534987 
L 183.640471 263.039153 
L 184.048072 263.412753 
L 184.292633 263.240376 
L 184.822515 262.809449 
L 185.189356 263.020117 
L 185.393156 262.536799 
L 185.596957 262.247722 
L 185.719237 262.325077 
L 186.208358 262.951178 
L 186.412159 262.925059 
L 186.94204 262.556591 
L 187.268121 262.704945 
L 187.553442 262.503915 
L 188.042564 262.13723 
L 188.490925 262.44408 
L 188.694725 261.967908 
L 189.224607 260.661561 
L 189.346887 260.874134 
L 189.754488 261.909262 
L 189.917529 261.770468 
L 190.48817 261.254476 
L 190.691971 261.435492 
L 190.936532 261.571527 
L 191.303373 261.422444 
L 192.077815 261.29674 
L 192.729976 261.566666 
L 193.137578 261.417806 
L 193.585939 261.518439 
L 193.87126 261.465516 
L 194.278861 261.313866 
L 195.297864 261.280344 
L 195.501664 260.843786 
L 195.746225 260.318982 
L 195.868505 260.373525 
L 196.398387 261.0582 
L 196.642947 260.897339 
L 197.091309 260.488774 
L 197.49891 260.595406 
L 197.906511 260.440632 
L 198.273352 260.474099 
L 198.884754 260.198991 
L 199.210834 260.38241 
L 199.455395 260.456663 
L 199.699956 260.261595 
L 200.148317 259.970566 
L 200.433638 260.032951 
L 200.800479 260.126743 
L 201.20808 259.969177 
L 201.656441 259.805566 
L 203.572167 259.70967 
L 204.020528 259.225516 
L 204.67269 259.592301 
L 204.91725 259.372953 
L 205.161811 259.187928 
L 205.773213 259.073258 
L 206.099294 258.841301 
L 206.425374 258.877416 
L 206.832976 258.959779 
L 207.322097 258.749901 
L 207.811218 258.903981 
L 208.218819 258.796539 
L 208.46338 258.493494 
L 208.830221 257.986815 
L 208.993262 258.216093 
L 209.237822 258.546855 
L 209.400863 258.491167 
L 209.686183 258.375897 
L 210.419865 258.510286 
L 210.949747 258.175045 
L 211.235068 258.345591 
L 211.398108 258.081954 
L 211.642669 257.642903 
L 211.764949 257.706184 
L 212.21331 258.258094 
L 212.620912 258.007586 
L 213.232313 257.639204 
L 213.558394 257.729998 
L 213.965995 257.783223 
L 214.210556 257.577642 
L 214.536637 257.261618 
L 214.740437 257.417968 
L 214.944238 257.464041 
L 215.188799 257.169921 
L 215.392599 257.119625 
L 215.8002 257.322729 
L 216.207801 256.957679 
L 216.656163 257.38245 
L 216.696923 257.34545 
L 217.104524 256.992042 
L 217.634405 256.819081 
L 218.042007 256.77162 
L 218.734928 256.810336 
L 219.10177 256.618302 
L 220.039252 256.526088 
L 220.365333 256.212343 
L 220.650654 255.994465 
L 220.854454 256.150423 
L 221.058255 256.206354 
L 221.302816 255.955367 
L 221.506616 255.920128 
L 221.954977 256.108992 
L 222.321818 255.829265 
L 222.77018 256.005972 
L 223.218541 255.693298 
L 223.789182 255.758042 
L 224.074503 255.525488 
L 224.319064 255.399289 
L 224.563625 255.594633 
L 224.767425 255.630047 
L 225.338067 255.442493 
L 225.623388 255.452923 
L 226.071749 255.392486 
L 226.275549 255.394747 
L 226.47935 255.087081 
L 226.723911 254.705985 
L 226.846191 254.776461 
L 227.213032 255.184999 
L 227.742913 254.949444 
L 227.987474 255.06853 
L 228.232035 254.914342 
L 228.558116 254.809685 
L 228.802676 254.713992 
L 229.291798 254.368585 
L 229.862439 254.677752 
L 230.14776 254.501136 
L 230.555361 254.187216 
L 231.085243 254.183217 
L 231.655884 254.111499 
L 232.145006 254.025701 
L 232.471087 254.107293 
L 233.123248 253.870559 
L 233.530849 253.909722 
L 233.85693 253.713496 
L 234.183011 253.540713 
L 235.528095 253.371613 
L 235.976456 253.197382 
L 236.302537 253.300026 
L 236.547098 253.315407 
L 237.158499 253.010024 
L 237.44382 253.016745 
L 237.892182 252.930915 
L 238.177502 252.950778 
L 238.748144 252.751715 
L 239.114985 252.833091 
L 240.297028 252.50297 
L 240.704629 252.273042 
L 241.11223 252.173696 
L 241.397551 252.072078 
L 241.601352 252.367213 
L 241.805152 252.571197 
L 241.968193 252.367487 
L 242.253514 251.91175 
L 242.416554 252.02986 
L 242.701875 252.263815 
L 242.987196 252.144948 
L 243.517077 252.047464 
L 244.250759 251.871286 
L 244.943681 251.610419 
L 245.351282 251.500032 
L 245.881164 251.426661 
L 246.696366 251.311253 
L 247.348528 250.891001 
L 247.715369 251.165599 
L 247.959929 251.288214 
L 248.20449 251.136489 
L 248.856652 250.598429 
L 249.223493 250.858643 
L 249.753374 250.567939 
L 250.283256 250.851202 
L 250.487056 250.641809 
L 250.813137 250.226088 
L 250.976178 250.414817 
L 251.220738 250.642567 
L 251.383779 250.496179 
L 251.6691 250.255805 
L 252.198981 250.196205 
L 252.810383 249.696234 
L 253.177224 249.700723 
L 253.707105 249.643113 
L 254.073946 249.574369 
L 254.481547 249.806369 
L 254.889149 249.193583 
L 254.929909 249.239466 
L 255.33751 249.939149 
L 255.37827 249.907077 
L 255.867391 249.435999 
L 256.274992 249.52011 
L 257.457036 249.313043 
L 257.742356 249.006147 
L 257.946157 249.100291 
L 258.231478 249.187047 
L 259.16896 248.862725 
L 259.658082 248.490307 
L 259.861882 248.574929 
L 260.187963 248.776141 
L 260.391764 248.534369 
L 260.677085 248.321102 
L 260.921645 248.434232 
L 261.451527 248.751058 
L 262.103689 248.202662 
L 263.326492 248.104443 
L 264.100934 247.677869 
L 264.427015 247.993916 
L 264.630816 248.093711 
L 264.793856 247.919673 
L 265.079177 247.595451 
L 265.242217 247.731238 
L 265.446018 247.859424 
L 265.609058 247.68656 
L 265.935139 247.226536 
L 266.13894 247.245659 
L 266.424261 247.499887 
L 266.668821 247.691952 
L 266.831862 247.588885 
L 267.117182 247.342594 
L 267.361743 247.46332 
L 267.565544 247.401541 
L 268.095425 246.957173 
L 268.339986 246.92743 
L 268.788347 246.717654 
L 269.195948 247.127855 
L 269.76659 246.716872 
L 270.174191 246.805049 
L 270.418752 246.618441 
L 270.826353 246.220404 
L 271.396994 246.446786 
L 271.641555 246.437842 
L 271.967636 246.54759 
L 272.171436 246.143019 
L 272.415997 245.790825 
L 272.538277 245.902082 
L 272.864358 246.307675 
L 273.068159 246.193597 
L 273.55728 245.937975 
L 274.087162 245.786032 
L 274.454003 245.275218 
L 274.617043 245.503477 
L 274.861604 245.834532 
L 275.024644 245.776599 
L 275.269205 245.680115 
L 275.758326 245.769464 
L 276.165928 245.360229 
L 276.532769 245.542252 
L 276.89961 245.622206 
L 278.203933 245.138404 
L 278.815335 245.252063 
L 279.141416 245.030612 
L 279.426737 244.921565 
L 279.997378 244.90878 
L 280.323459 244.601155 
L 280.77182 244.187 
L 280.934861 244.231446 
L 281.138661 244.549233 
L 281.342462 244.789049 
L 281.505502 244.658841 
L 281.953864 244.008 
L 282.198424 243.985334 
L 282.891346 244.289501 
L 283.380467 244.007051 
L 283.828829 243.532726 
L 283.991869 243.782164 
L 284.23643 244.092236 
L 284.39947 243.992219 
L 284.725551 243.75187 
L 285.133152 243.840071 
L 285.581514 243.878169 
L 285.826074 243.693801 
L 286.355956 243.042752 
L 286.885837 243.363456 
L 287.415719 243.100996 
L 287.86408 242.965255 
L 288.393961 243.14319 
L 288.801562 242.650538 
L 290.146646 242.70786 
L 290.391207 242.74945 
L 290.717288 242.904167 
L 290.880328 242.645672 
L 291.165649 242.174465 
L 291.328689 242.277448 
L 291.57325 242.460118 
L 291.777051 242.344122 
L 292.143892 242.174287 
L 292.633013 242.260951 
L 293.081374 242.274862 
L 293.366695 242.053956 
L 293.611256 241.913174 
L 294.141137 241.868289 
L 294.467218 241.532795 
L 294.752539 241.603896 
L 295.24166 241.642756 
L 295.690022 241.573236 
L 296.097623 241.819228 
L 297.035105 241.198854 
L 297.442706 241.086055 
L 297.687267 241.088432 
L 298.176388 241.33206 
L 298.58399 240.815891 
L 298.82855 240.614634 
L 298.991591 240.783352 
L 299.317672 241.245146 
L 299.480712 241.028574 
L 299.766033 240.619061 
L 300.010594 240.630706 
L 300.621995 240.746886 
L 301.029596 240.504928 
L 301.437197 240.517744 
L 301.926319 240.074658 
L 302.130119 239.999528 
L 302.33392 240.199289 
L 302.537721 240.354256 
L 302.700761 240.215807 
L 303.026842 239.86146 
L 303.842044 240.000667 
L 304.127365 240.130206 
L 304.290405 239.703096 
L 304.657246 238.596917 
L 304.779527 238.751306 
L 304.983327 239.008407 
L 305.105608 238.937759 
L 305.553969 238.462382 
L 305.88005 238.526437 
L 306.287651 238.434571 
L 306.654492 238.603961 
L 306.858292 238.318065 
L 307.143613 238.048944 
L 307.551214 237.910452 
L 307.836535 237.692235 
L 307.999576 237.867122 
L 308.244136 238.171916 
L 308.407177 238.040841 
L 308.651737 237.759918 
L 308.814778 237.909097 
L 309.100099 238.261816 
L 309.263139 238.148591 
L 309.62998 237.826382 
L 309.996821 237.61088 
L 310.608223 237.080421 
L 310.771263 237.313363 
L 311.423425 238.696624 
L 311.627226 238.645856 
L 312.034827 238.399211 
L 312.360908 238.407346 
L 312.850029 238.068131 
L 313.25763 238.290299 
L 314.317393 237.790468 
L 314.684234 237.894113 
L 314.969555 237.82499 
L 315.295636 237.744941 
L 315.703237 237.731304 
L 316.070078 237.599705 
L 316.477679 237.677618 
L 317.292881 236.976512 
L 318.067324 237.285989 
L 318.393404 237.174679 
L 318.637965 236.747488 
L 318.882526 236.403658 
L 319.045566 236.455182 
L 319.697728 236.97401 
L 319.901529 236.709719 
L 320.146089 236.494741 
L 320.39065 236.585158 
L 320.920531 236.857367 
L 321.165092 236.449072 
L 321.450413 236.200695 
L 321.898774 236.346613 
L 322.347135 236.448531 
L 322.795497 236.327784 
L 323.569939 236.029988 
L 323.89602 235.978232 
L 324.222101 235.896017 
L 324.588942 235.902848 
L 325.078063 235.531139 
L 325.485664 235.875153 
L 325.811745 235.671015 
L 326.382387 235.379076 
L 326.830748 235.220765 
L 327.401389 235.031255 
L 328.664953 235.02313 
L 329.194834 234.662724 
L 329.480155 234.867774 
L 329.724716 234.733551 
L 330.050797 234.629858 
L 330.539918 234.544927 
L 331.15132 234.365528 
L 331.558921 234.826601 
L 331.762721 234.506987 
L 332.170323 233.980741 
L 332.333363 234.025788 
L 332.618684 234.508135 
L 332.822484 234.614719 
L 333.107805 234.379416 
L 333.637687 234.015229 
L 334.615929 233.839475 
L 335.349611 233.400341 
L 336.205574 233.728976 
L 336.409374 233.761398 
L 336.653935 233.491486 
L 336.939256 233.307768 
L 337.835978 233.183413 
L 338.28434 232.860187 
L 338.56966 232.873161 
L 338.936501 232.928235 
L 339.588663 232.823472 
L 340.159305 232.889846 
L 340.689186 232.430904 
L 340.974507 232.499458 
L 341.259828 232.596232 
L 341.463628 232.359674 
L 341.748949 232.083934 
L 341.95275 232.171375 
L 342.523391 232.446942 
L 342.808712 231.988651 
L 343.053273 231.867768 
L 343.827715 232.117437 
L 344.724437 231.563462 
L 345.5804 231.542906 
L 346.436362 231.195211 
L 347.047764 231.158405 
L 347.536885 230.806205 
L 348.189047 230.893399 
L 348.678168 230.550411 
L 349.16729 231.051247 
L 349.656411 230.757407 
L 349.982492 230.837299 
L 350.267813 230.911242 
L 351.001495 230.547245 
L 351.246055 230.198757 
L 351.490616 229.937807 
L 351.653657 230.019754 
L 351.857457 230.079469 
L 352.020498 229.881465 
L 352.387339 229.340325 
L 352.631899 229.341834 
L 352.87646 229.622605 
L 353.161781 229.893218 
L 354.262304 229.881631 
L 354.506864 229.577351 
L 354.832945 229.196882 
L 355.240546 229.138699 
L 355.607387 229.234953 
L 356.055749 229.441048 
L 357.115512 229.089989 
L 357.604633 229.141179 
L 358.175275 228.780509 
L 358.419835 228.811584 
L 358.908957 228.58811 
L 359.275798 228.844153 
L 360.00948 228.468442 
L 360.743162 228.542815 
L 361.354563 228.318055 
L 361.639884 228.511655 
L 361.802925 228.301834 
L 362.129006 227.82811 
L 362.332806 227.91514 
L 362.699647 228.008202 
L 363.80017 228.085749 
L 364.085491 228.153456 
L 364.289292 227.873565 
L 364.615372 227.414351 
L 365.104494 226.990599 
L 365.430575 226.705751 
L 366.041976 226.667323 
L 366.245777 226.896058 
L 366.449577 227.157323 
L 366.571858 226.909373 
L 366.979459 225.25748 
L 367.060979 225.436409 
L 367.50934 226.903104 
L 368.243022 226.468425 
L 368.609863 226.374556 
L 369.302785 226.598866 
L 369.588106 226.715496 
L 369.832667 226.777942 
L 370.077228 226.571775 
L 370.525589 226.28094 
L 370.81091 226.348719 
L 371.05547 226.370427 
L 371.503831 226.184762 
L 371.911433 226.488218 
L 372.196753 226.071278 
L 372.522834 225.798163 
L 372.767395 225.844416 
L 373.093476 225.987869 
L 373.704878 225.805418 
L 374.234759 226.128192 
L 374.397799 225.898444 
L 374.846161 225.093015 
L 375.131482 225.132164 
L 375.620603 225.26475 
L 375.987444 225.130513 
L 376.558085 225.314022 
L 377.373288 225.032114 
L 377.617848 225.039644 
L 377.862409 224.833076 
L 378.473811 224.057216 
L 378.514571 224.100989 
L 378.840652 224.408439 
L 379.411293 224.475266 
L 379.615094 224.517575 
L 379.900415 224.265757 
L 380.144975 224.212795 
L 380.471056 224.232511 
L 380.797137 223.95347 
L 381.204738 223.589197 
L 381.367779 223.777846 
L 381.69386 224.213372 
L 381.97918 224.115563 
L 382.223741 224.18904 
L 382.427542 224.21969 
L 382.631342 224.015142 
L 382.875903 223.822218 
L 383.079704 223.946926 
L 383.283504 223.987575 
L 383.568825 223.709685 
L 383.772625 223.672475 
L 384.180227 223.769034 
L 384.465547 223.483161 
L 384.913909 222.975545 
L 385.076949 223.232267 
L 385.28075 223.496003 
L 385.40303 223.424908 
L 385.769871 223.04966 
L 386.218232 223.311059 
L 386.585073 222.978113 
L 386.992674 223.099824 
L 387.441036 222.673665 
L 387.889397 222.914461 
L 388.133958 222.922607 
L 388.541559 223.297293 
L 388.582319 223.244381 
L 388.786119 222.640709 
L 388.98992 222.254357 
L 389.1122 222.312725 
L 389.438281 222.665476 
L 389.682842 222.530007 
L 390.253483 222.024316 
L 390.864885 220.91204 
L 390.987165 220.988264 
L 391.190966 221.511474 
L 391.476287 222.185366 
L 391.639327 222.212176 
L 391.924648 221.967094 
L 392.250729 221.693296 
L 392.454529 221.896506 
L 392.61757 221.93704 
L 392.78061 221.697381 
L 393.106691 221.148131 
L 393.269732 221.197807 
L 393.514292 221.575833 
L 393.840373 222.162303 
L 393.962654 222.030856 
L 394.329495 221.381381 
L 394.492535 221.54034 
L 394.696336 221.596541 
L 394.900136 221.293358 
L 395.144697 221.058208 
L 395.348498 221.160335 
L 396.08218 221.613473 
L 396.32674 221.451484 
L 397.060422 220.683023 
L 397.345743 220.792874 
L 397.590304 220.818066 
L 397.875625 220.58137 
L 398.364746 220.162431 
L 398.446266 220.27491 
L 398.446266 220.27491 
" style="fill:none;stroke:#2ca02c;stroke-linecap:square;stroke-width:1.5;"/>
   </g>
   <g id="patch_3">
    <path d="M 57.6 307.584 
L 57.6 41.472 
" style="fill:none;stroke:#000000;stroke-linecap:square;stroke-linejoin:miter;stroke-width:0.8;"/>
   </g>
   <g id="patch_4">
    <path d="M 414.72 307.584 
L 414.72 41.472 
" style="fill:none;stroke:#000000;stroke-linecap:square;stroke-linejoin:miter;stroke-width:0.8;"/>
   </g>
   <g id="patch_5">
    <path d="M 57.6 307.584 
L 414.72 307.584 
" style="fill:none;stroke:#000000;stroke-linecap:square;stroke-linejoin:miter;stroke-width:0.8;"/>
   </g>
   <g id="patch_6">
    <path d="M 57.6 41.472 
L 414.72 41.472 
" style="fill:none;stroke:#000000;stroke-linecap:square;stroke-linejoin:miter;stroke-width:0.8;"/>
   </g>
   <g id="text_20">
    <!-- Complexity Test -->
    <defs>
     <path d="M 64.40625 67.28125 
L 64.40625 56.890625 
Q 59.421875 61.53125 53.78125 63.8125 
Q 48.140625 66.109375 41.796875 66.109375 
Q 29.296875 66.109375 22.65625 58.46875 
Q 16.015625 50.828125 16.015625 36.375 
Q 16.015625 21.96875 22.65625 14.328125 
Q 29.296875 6.6875 41.796875 6.6875 
Q 48.140625 6.6875 53.78125 8.984375 
Q 59.421875 11.28125 64.40625 15.921875 
L 64.40625 5.609375 
Q 59.234375 2.09375 53.4375 0.328125 
Q 47.65625 -1.421875 41.21875 -1.421875 
Q 24.65625 -1.421875 15.125 8.703125 
Q 5.609375 18.84375 5.609375 36.375 
Q 5.609375 53.953125 15.125 64.078125 
Q 24.65625 74.21875 41.21875 74.21875 
Q 47.75 74.21875 53.53125 72.484375 
Q 59.328125 70.75 64.40625 67.28125 
z
" id="DejaVuSans-67"/>
     <path d="M 18.109375 8.203125 
L 18.109375 -20.796875 
L 9.078125 -20.796875 
L 9.078125 54.6875 
L 18.109375 54.6875 
L 18.109375 46.390625 
Q 20.953125 51.265625 25.265625 53.625 
Q 29.59375 56 35.59375 56 
Q 45.5625 56 51.78125 48.09375 
Q 58.015625 40.1875 58.015625 27.296875 
Q 58.015625 14.40625 51.78125 6.484375 
Q 45.5625 -1.421875 35.59375 -1.421875 
Q 29.59375 -1.421875 25.265625 0.953125 
Q 20.953125 3.328125 18.109375 8.203125 
z
M 48.6875 27.296875 
Q 48.6875 37.203125 44.609375 42.84375 
Q 40.53125 48.484375 33.40625 48.484375 
Q 26.265625 48.484375 22.1875 42.84375 
Q 18.109375 37.203125 18.109375 27.296875 
Q 18.109375 17.390625 22.1875 11.75 
Q 26.265625 6.109375 33.40625 6.109375 
Q 40.53125 6.109375 44.609375 11.75 
Q 48.6875 17.390625 48.6875 27.296875 
z
" id="DejaVuSans-112"/>
     <path d="M 9.421875 75.984375 
L 18.40625 75.984375 
L 18.40625 0 
L 9.421875 0 
z
" id="DejaVuSans-108"/>
     <path d="M 32.171875 -5.078125 
Q 28.375 -14.84375 24.75 -17.8125 
Q 21.140625 -20.796875 15.09375 -20.796875 
L 7.90625 -20.796875 
L 7.90625 -13.28125 
L 13.1875 -13.28125 
Q 16.890625 -13.28125 18.9375 -11.515625 
Q 21 -9.765625 23.484375 -3.21875 
L 25.09375 0.875 
L 2.984375 54.6875 
L 12.5 54.6875 
L 29.59375 11.921875 
L 46.6875 54.6875 
L 56.203125 54.6875 
z
" id="DejaVuSans-121"/>
    </defs>
    <g transform="translate(187.440937 35.472)scale(0.12 -0.12)">
     <use xlink:href="#DejaVuSans-67"/>
     <use x="69.824219" xlink:href="#DejaVuSans-111"/>
     <use x="131.005859" xlink:href="#DejaVuSans-109"/>
     <use x="228.417969" xlink:href="#DejaVuSans-112"/>
     <use x="291.894531" xlink:href="#DejaVuSans-108"/>
     <use x="319.677734" xlink:href="#DejaVuSans-101"/>
     <use x="381.185547" xlink:href="#DejaVuSans-120"/>
     <use x="440.365234" xlink:href="#DejaVuSans-105"/>
     <use x="468.148438" xlink:href="#DejaVuSans-116"/>
     <use x="507.357422" xlink:href="#DejaVuSans-121"/>
     <use x="566.537109" xlink:href="#DejaVuSans-32"/>
     <use x="598.324219" xlink:href="#DejaVuSans-84"/>
     <use x="659.142578" xlink:href="#DejaVuSans-101"/>
     <use x="720.666016" xlink:href="#DejaVuSans-115"/>
     <use x="772.765625" xlink:href="#DejaVuSans-116"/>
    </g>
   </g>
   <g id="legend_1">
    <g id="patch_7">
     <path d="M 64.6 93.52825 
L 214.773438 93.52825 
Q 216.773438 93.52825 216.773438 91.52825 
L 216.773438 48.472 
Q 216.773438 46.472 214.773438 46.472 
L 64.6 46.472 
Q 62.6 46.472 62.6 48.472 
L 62.6 91.52825 
Q 62.6 93.52825 64.6 93.52825 
z
" style="fill:#ffffff;opacity:0.8;stroke:#cccccc;stroke-linejoin:miter;"/>
    </g>
    <g id="line2d_20">
     <path d="M 66.6 54.570438 
L 86.6 54.570438 
" style="fill:none;stroke:#1f77b4;stroke-linecap:square;stroke-width:1.5;"/>
    </g>
    <g id="line2d_21"/>
    <g id="text_21">
     <!-- Algorithm: t(G) in Trees -->
     <defs>
      <path d="M 34.1875 63.1875 
L 20.796875 26.90625 
L 47.609375 26.90625 
z
M 28.609375 72.90625 
L 39.796875 72.90625 
L 67.578125 0 
L 57.328125 0 
L 50.6875 18.703125 
L 17.828125 18.703125 
L 11.1875 0 
L 0.78125 0 
z
" id="DejaVuSans-65"/>
      <path d="M 45.40625 27.984375 
Q 45.40625 37.75 41.375 43.109375 
Q 37.359375 48.484375 30.078125 48.484375 
Q 22.859375 48.484375 18.828125 43.109375 
Q 14.796875 37.75 14.796875 27.984375 
Q 14.796875 18.265625 18.828125 12.890625 
Q 22.859375 7.515625 30.078125 7.515625 
Q 37.359375 7.515625 41.375 12.890625 
Q 45.40625 18.265625 45.40625 27.984375 
z
M 54.390625 6.78125 
Q 54.390625 -7.171875 48.1875 -13.984375 
Q 42 -20.796875 29.203125 -20.796875 
Q 24.46875 -20.796875 20.265625 -20.09375 
Q 16.0625 -19.390625 12.109375 -17.921875 
L 12.109375 -9.1875 
Q 16.0625 -11.328125 19.921875 -12.34375 
Q 23.78125 -13.375 27.78125 -13.375 
Q 36.625 -13.375 41.015625 -8.765625 
Q 45.40625 -4.15625 45.40625 5.171875 
L 45.40625 9.625 
Q 42.625 4.78125 38.28125 2.390625 
Q 33.9375 0 27.875 0 
Q 17.828125 0 11.671875 7.65625 
Q 5.515625 15.328125 5.515625 27.984375 
Q 5.515625 40.671875 11.671875 48.328125 
Q 17.828125 56 27.875 56 
Q 33.9375 56 38.28125 53.609375 
Q 42.625 51.21875 45.40625 46.390625 
L 45.40625 54.6875 
L 54.390625 54.6875 
z
" id="DejaVuSans-103"/>
      <path d="M 54.890625 33.015625 
L 54.890625 0 
L 45.90625 0 
L 45.90625 32.71875 
Q 45.90625 40.484375 42.875 44.328125 
Q 39.84375 48.1875 33.796875 48.1875 
Q 26.515625 48.1875 22.3125 43.546875 
Q 18.109375 38.921875 18.109375 30.90625 
L 18.109375 0 
L 9.078125 0 
L 9.078125 75.984375 
L 18.109375 75.984375 
L 18.109375 46.1875 
Q 21.34375 51.125 25.703125 53.5625 
Q 30.078125 56 35.796875 56 
Q 45.21875 56 50.046875 50.171875 
Q 54.890625 44.34375 54.890625 33.015625 
z
" id="DejaVuSans-104"/>
      <path d="M 11.71875 12.40625 
L 22.015625 12.40625 
L 22.015625 0 
L 11.71875 0 
z
M 11.71875 51.703125 
L 22.015625 51.703125 
L 22.015625 39.3125 
L 11.71875 39.3125 
z
" id="DejaVuSans-58"/>
      <path d="M 59.515625 10.40625 
L 59.515625 29.984375 
L 43.40625 29.984375 
L 43.40625 38.09375 
L 69.28125 38.09375 
L 69.28125 6.78125 
Q 63.578125 2.734375 56.6875 0.65625 
Q 49.8125 -1.421875 42 -1.421875 
Q 24.90625 -1.421875 15.25 8.5625 
Q 5.609375 18.5625 5.609375 36.375 
Q 5.609375 54.25 15.25 64.234375 
Q 24.90625 74.21875 42 74.21875 
Q 49.125 74.21875 55.546875 72.453125 
Q 61.96875 70.703125 67.390625 67.28125 
L 67.390625 56.78125 
Q 61.921875 61.421875 55.765625 63.765625 
Q 49.609375 66.109375 42.828125 66.109375 
Q 29.4375 66.109375 22.71875 58.640625 
Q 16.015625 51.171875 16.015625 36.375 
Q 16.015625 21.625 22.71875 14.15625 
Q 29.4375 6.6875 42.828125 6.6875 
Q 48.046875 6.6875 52.140625 7.59375 
Q 56.25 8.5 59.515625 10.40625 
z
" id="DejaVuSans-71"/>
     </defs>
     <g transform="translate(94.6 58.070438)scale(0.1 -0.1)">
      <use xlink:href="#DejaVuSans-65"/>
      <use x="68.408203" xlink:href="#DejaVuSans-108"/>
      <use x="96.191406" xlink:href="#DejaVuSans-103"/>
      <use x="159.667969" xlink:href="#DejaVuSans-111"/>
      <use x="220.849609" xlink:href="#DejaVuSans-114"/>
      <use x="261.962891" xlink:href="#DejaVuSans-105"/>
      <use x="289.746094" xlink:href="#DejaVuSans-116"/>
      <use x="328.955078" xlink:href="#DejaVuSans-104"/>
      <use x="392.333984" xlink:href="#DejaVuSans-109"/>
      <use x="489.746094" xlink:href="#DejaVuSans-58"/>
      <use x="523.4375" xlink:href="#DejaVuSans-32"/>
      <use x="555.224609" xlink:href="#DejaVuSans-116"/>
      <use x="594.433594" xlink:href="#DejaVuSans-40"/>
      <use x="633.447266" xlink:href="#DejaVuSans-71"/>
      <use x="710.9375" xlink:href="#DejaVuSans-41"/>
      <use x="749.951172" xlink:href="#DejaVuSans-32"/>
      <use x="781.738281" xlink:href="#DejaVuSans-105"/>
      <use x="809.521484" xlink:href="#DejaVuSans-110"/>
      <use x="872.900391" xlink:href="#DejaVuSans-32"/>
      <use x="904.6875" xlink:href="#DejaVuSans-84"/>
      <use x="965.552734" xlink:href="#DejaVuSans-114"/>
      <use x="1006.634766" xlink:href="#DejaVuSans-101"/>
      <use x="1068.158203" xlink:href="#DejaVuSans-101"/>
      <use x="1129.681641" xlink:href="#DejaVuSans-115"/>
     </g>
    </g>
    <g id="line2d_22">
     <path d="M 66.6 69.248563 
L 86.6 69.248563 
" style="fill:none;stroke:#ff7f0e;stroke-linecap:square;stroke-width:1.5;"/>
    </g>
    <g id="line2d_23"/>
    <g id="text_22">
     <!-- Guide Curve $O(n)$ -->
     <defs>
      <path d="M 45.40625 46.390625 
L 45.40625 75.984375 
L 54.390625 75.984375 
L 54.390625 0 
L 45.40625 0 
L 45.40625 8.203125 
Q 42.578125 3.328125 38.25 0.953125 
Q 33.9375 -1.421875 27.875 -1.421875 
Q 17.96875 -1.421875 11.734375 6.484375 
Q 5.515625 14.40625 5.515625 27.296875 
Q 5.515625 40.1875 11.734375 48.09375 
Q 17.96875 56 27.875 56 
Q 33.9375 56 38.25 53.625 
Q 42.578125 51.265625 45.40625 46.390625 
z
M 14.796875 27.296875 
Q 14.796875 17.390625 18.875 11.75 
Q 22.953125 6.109375 30.078125 6.109375 
Q 37.203125 6.109375 41.296875 11.75 
Q 45.40625 17.390625 45.40625 27.296875 
Q 45.40625 37.203125 41.296875 42.84375 
Q 37.203125 48.484375 30.078125 48.484375 
Q 22.953125 48.484375 18.875 42.84375 
Q 14.796875 37.203125 14.796875 27.296875 
z
" id="DejaVuSans-100"/>
      <path d="M 2.984375 54.6875 
L 12.5 54.6875 
L 29.59375 8.796875 
L 46.6875 54.6875 
L 56.203125 54.6875 
L 35.6875 0 
L 23.484375 0 
z
" id="DejaVuSans-118"/>
      <path d="M 45.609375 66.21875 
Q 37.5 66.21875 31.296875 62.28125 
Q 25.09375 58.34375 20.515625 50.296875 
Q 17.578125 45.171875 16.03125 39.40625 
Q 14.5 33.640625 14.5 27.78125 
Q 14.5 17.625 19.359375 12.109375 
Q 24.21875 6.59375 33.109375 6.59375 
Q 41.109375 6.59375 47.375 10.5625 
Q 53.65625 14.546875 58.109375 22.40625 
Q 61.078125 27.6875 62.640625 33.46875 
Q 64.203125 39.265625 64.203125 45.015625 
Q 64.203125 55.125 59.3125 60.671875 
Q 54.4375 66.21875 45.609375 66.21875 
z
M 32.8125 -1.421875 
Q 19.390625 -1.421875 11.6875 6.53125 
Q 4 14.5 4 28.328125 
Q 4 36.234375 7 44.484375 
Q 10.015625 52.734375 15.28125 59.1875 
Q 21.484375 66.75 29.09375 70.484375 
Q 36.71875 74.21875 45.90625 74.21875 
Q 59.28125 74.21875 66.984375 66.328125 
Q 74.703125 58.453125 74.703125 44.828125 
Q 74.703125 36.421875 71.765625 28.3125 
Q 68.84375 20.21875 63.375 13.625 
Q 57.125 6 49.578125 2.28125 
Q 42.046875 -1.421875 32.8125 -1.421875 
z
" id="DejaVuSans-Oblique-79"/>
      <path d="M 55.71875 33.015625 
L 49.3125 0 
L 40.28125 0 
L 46.6875 32.671875 
Q 47.125 34.96875 47.359375 36.71875 
Q 47.609375 38.484375 47.609375 39.5 
Q 47.609375 43.609375 45.015625 45.890625 
Q 42.4375 48.1875 37.796875 48.1875 
Q 30.5625 48.1875 25.34375 43.375 
Q 20.125 38.578125 18.5 30.328125 
L 12.5 0 
L 3.515625 0 
L 14.109375 54.6875 
L 23.09375 54.6875 
L 21.296875 46.09375 
Q 25.046875 50.828125 30.3125 53.40625 
Q 35.59375 56 41.40625 56 
Q 48.640625 56 52.609375 52.09375 
Q 56.59375 48.1875 56.59375 41.109375 
Q 56.59375 39.359375 56.375 37.359375 
Q 56.15625 35.359375 55.71875 33.015625 
z
" id="DejaVuSans-Oblique-110"/>
     </defs>
     <g transform="translate(94.6 72.748563)scale(0.1 -0.1)">
      <use transform="translate(0 0.015625)" xlink:href="#DejaVuSans-71"/>
      <use transform="translate(77.490234 0.015625)" xlink:href="#DejaVuSans-117"/>
      <use transform="translate(140.869141 0.015625)" xlink:href="#DejaVuSans-105"/>
      <use transform="translate(168.652344 0.015625)" xlink:href="#DejaVuSans-100"/>
      <use transform="translate(232.128906 0.015625)" xlink:href="#DejaVuSans-101"/>
      <use transform="translate(293.652344 0.015625)" xlink:href="#DejaVuSans-32"/>
      <use transform="translate(325.439453 0.015625)" xlink:href="#DejaVuSans-67"/>
      <use transform="translate(395.263672 0.015625)" xlink:href="#DejaVuSans-117"/>
      <use transform="translate(458.642578 0.015625)" xlink:href="#DejaVuSans-114"/>
      <use transform="translate(499.755859 0.015625)" xlink:href="#DejaVuSans-118"/>
      <use transform="translate(558.935547 0.015625)" xlink:href="#DejaVuSans-101"/>
      <use transform="translate(620.458984 0.015625)" xlink:href="#DejaVuSans-32"/>
      <use transform="translate(652.246094 0.015625)" xlink:href="#DejaVuSans-Oblique-79"/>
      <use transform="translate(730.957031 0.015625)" xlink:href="#DejaVuSans-40"/>
      <use transform="translate(769.970703 0.015625)" xlink:href="#DejaVuSans-Oblique-110"/>
      <use transform="translate(833.349609 0.015625)" xlink:href="#DejaVuSans-41"/>
     </g>
    </g>
    <g id="line2d_24">
     <path d="M 66.6 83.92825 
L 86.6 83.92825 
" style="fill:none;stroke:#2ca02c;stroke-linecap:square;stroke-width:1.5;"/>
    </g>
    <g id="line2d_25"/>
    <g id="text_23">
     <!-- Guide Curve $O(n log(n))$ -->
     <defs>
      <path d="M 18.3125 75.984375 
L 27.296875 75.984375 
L 12.5 0 
L 3.515625 0 
z
" id="DejaVuSans-Oblique-108"/>
      <path d="M 25.390625 -1.421875 
Q 15.765625 -1.421875 10.171875 4.515625 
Q 4.59375 10.453125 4.59375 20.703125 
Q 4.59375 26.65625 6.515625 32.828125 
Q 8.453125 39.015625 11.53125 43.21875 
Q 16.359375 49.75 22.3125 52.875 
Q 28.265625 56 35.796875 56 
Q 45.125 56 50.859375 50.1875 
Q 56.59375 44.390625 56.59375 35.015625 
Q 56.59375 28.515625 54.6875 22.0625 
Q 52.78125 15.625 49.703125 11.375 
Q 44.921875 4.828125 38.96875 1.703125 
Q 33.015625 -1.421875 25.390625 -1.421875 
z
M 13.921875 21 
Q 13.921875 13.578125 17.015625 9.890625 
Q 20.125 6.203125 26.421875 6.203125 
Q 35.453125 6.203125 41.375 14.078125 
Q 47.3125 21.96875 47.3125 34.078125 
Q 47.3125 41.15625 44.140625 44.765625 
Q 40.96875 48.390625 34.8125 48.390625 
Q 29.734375 48.390625 25.78125 46.015625 
Q 21.828125 43.65625 18.703125 38.8125 
Q 16.40625 35.203125 15.15625 30.5625 
Q 13.921875 25.921875 13.921875 21 
z
" id="DejaVuSans-Oblique-111"/>
      <path d="M 59.625 54.6875 
L 50.296875 6.78125 
Q 47.609375 -7.125 40.015625 -13.953125 
Q 32.421875 -20.796875 19.578125 -20.796875 
Q 14.84375 -20.796875 10.78125 -20.09375 
Q 6.734375 -19.390625 3.21875 -17.921875 
L 4.890625 -9.1875 
Q 8.203125 -11.328125 11.90625 -12.34375 
Q 15.625 -13.375 19.828125 -13.375 
Q 28.375 -13.375 33.859375 -8.703125 
Q 39.359375 -4.046875 41.109375 4.6875 
L 41.890625 8.796875 
Q 38.140625 4.5 33.15625 2.25 
Q 28.171875 0 22.40625 0 
Q 14.109375 0 9.34375 5.484375 
Q 4.59375 10.984375 4.59375 20.609375 
Q 4.59375 28.171875 7.46875 35.421875 
Q 10.359375 42.671875 15.578125 48.296875 
Q 19.046875 52 23.65625 54 
Q 28.265625 56 33.296875 56 
Q 38.8125 56 42.90625 53.4375 
Q 47.015625 50.875 49.03125 46.1875 
L 50.59375 54.6875 
z
M 46.09375 34.625 
Q 46.09375 41.265625 42.96875 44.875 
Q 39.84375 48.484375 34.078125 48.484375 
Q 30.515625 48.484375 27.296875 47.0625 
Q 24.078125 45.65625 21.78125 43.109375 
Q 18.0625 38.921875 15.984375 33.234375 
Q 13.921875 27.546875 13.921875 21.484375 
Q 13.921875 14.75 17.0625 11.125 
Q 20.21875 7.515625 26.125 7.515625 
Q 34.671875 7.515625 40.375 15.25 
Q 46.09375 23 46.09375 34.625 
z
" id="DejaVuSans-Oblique-103"/>
     </defs>
     <g transform="translate(94.6 87.42825)scale(0.1 -0.1)">
      <use transform="translate(0 0.015625)" xlink:href="#DejaVuSans-71"/>
      <use transform="translate(77.490234 0.015625)" xlink:href="#DejaVuSans-117"/>
      <use transform="translate(140.869141 0.015625)" xlink:href="#DejaVuSans-105"/>
      <use transform="translate(168.652344 0.015625)" xlink:href="#DejaVuSans-100"/>
      <use transform="translate(232.128906 0.015625)" xlink:href="#DejaVuSans-101"/>
      <use transform="translate(293.652344 0.015625)" xlink:href="#DejaVuSans-32"/>
      <use transform="translate(325.439453 0.015625)" xlink:href="#DejaVuSans-67"/>
      <use transform="translate(395.263672 0.015625)" xlink:href="#DejaVuSans-117"/>
      <use transform="translate(458.642578 0.015625)" xlink:href="#DejaVuSans-114"/>
      <use transform="translate(499.755859 0.015625)" xlink:href="#DejaVuSans-118"/>
      <use transform="translate(558.935547 0.015625)" xlink:href="#DejaVuSans-101"/>
      <use transform="translate(620.458984 0.015625)" xlink:href="#DejaVuSans-32"/>
      <use transform="translate(652.246094 0.015625)" xlink:href="#DejaVuSans-Oblique-79"/>
      <use transform="translate(730.957031 0.015625)" xlink:href="#DejaVuSans-40"/>
      <use transform="translate(769.970703 0.015625)" xlink:href="#DejaVuSans-Oblique-110"/>
      <use transform="translate(833.349609 0.015625)" xlink:href="#DejaVuSans-Oblique-108"/>
      <use transform="translate(861.132812 0.015625)" xlink:href="#DejaVuSans-Oblique-111"/>
      <use transform="translate(922.314453 0.015625)" xlink:href="#DejaVuSans-Oblique-103"/>
      <use transform="translate(985.791016 0.015625)" xlink:href="#DejaVuSans-40"/>
      <use transform="translate(1024.804688 0.015625)" xlink:href="#DejaVuSans-Oblique-110"/>
      <use transform="translate(1088.183594 0.015625)" xlink:href="#DejaVuSans-41"/>
      <use transform="translate(1127.197266 0.015625)" xlink:href="#DejaVuSans-41"/>
     </g>
    </g>
   </g>
  </g>
 </g>
 <defs>
  <clipPath id="pec48c02185">
   <rect height="266.112" width="357.12" x="57.6" y="41.472"/>
  </clipPath>
 </defs>
</svg>
