<?xml version="1.0" encoding="utf-8" standalone="no"?>
<!DOCTYPE svg PUBLIC "-//W3C//DTD SVG 1.1//EN"
  "http://www.w3.org/Graphics/SVG/1.1/DTD/svg11.dtd">
<!-- Created with matplotlib (https://matplotlib.org/) -->
<svg height="345.6pt" version="1.1" viewBox="0 0 460.8 345.6" width="460.8pt" xmlns="http://www.w3.org/2000/svg" xmlns:xlink="http://www.w3.org/1999/xlink">
 <defs>
  <style type="text/css">
*{stroke-linecap:butt;stroke-linejoin:round;white-space:pre;}
  </style>
 </defs>
 <g id="figure_1">
  <g id="patch_1">
   <path d="M 0 345.6 
L 460.8 345.6 
L 460.8 0 
L 0 0 
z
" style="fill:#ffffff;"/>
  </g>
  <g id="axes_1">
   <g id="patch_2">
    <path d="M 57.6 307.584 
L 414.72 307.584 
L 414.72 41.472 
L 57.6 41.472 
z
" style="fill:#ffffff;"/>
   </g>
   <g id="PathCollection_1">
    <defs>
     <path d="M 0 3 
C 0.795609 3 1.55874 2.683901 2.12132 2.12132 
C 2.683901 1.55874 3 0.795609 3 0 
C 3 -0.795609 2.683901 -1.55874 2.12132 -2.12132 
C 1.55874 -2.683901 0.795609 -3 0 -3 
C -0.795609 -3 -1.55874 -2.683901 -2.12132 -2.12132 
C -2.683901 -1.55874 -3 -0.795609 -3 0 
C -3 0.795609 -2.683901 1.55874 -2.12132 2.12132 
C -1.55874 2.683901 -0.795609 3 0 3 
z
" id="m9c2d1ffbc6" style="stroke:#ff0000;"/>
    </defs>
    <g clip-path="url(#pe322297630)">
     <use style="fill:#1f77b4;stroke:#ff0000;" x="73.91814" xlink:href="#m9c2d1ffbc6" y="295.43054"/>
     <use style="fill:#1f77b4;stroke:#ff0000;" x="82.45943" xlink:href="#m9c2d1ffbc6" y="292.209887"/>
     <use style="fill:#1f77b4;stroke:#ff0000;" x="91.000721" xlink:href="#m9c2d1ffbc6" y="288.650218"/>
     <use style="fill:#1f77b4;stroke:#ff0000;" x="99.542011" xlink:href="#m9c2d1ffbc6" y="283.282463"/>
     <use style="fill:#1f77b4;stroke:#ff0000;" x="108.083301" xlink:href="#m9c2d1ffbc6" y="278.988259"/>
     <use style="fill:#1f77b4;stroke:#ff0000;" x="116.624591" xlink:href="#m9c2d1ffbc6" y="279.270773"/>
     <use style="fill:#1f77b4;stroke:#ff0000;" x="125.165882" xlink:href="#m9c2d1ffbc6" y="279.044762"/>
     <use style="fill:#1f77b4;stroke:#ff0000;" x="133.707172" xlink:href="#m9c2d1ffbc6" y="275.42859"/>
     <use style="fill:#1f77b4;stroke:#ff0000;" x="142.248462" xlink:href="#m9c2d1ffbc6" y="271.134386"/>
     <use style="fill:#1f77b4;stroke:#ff0000;" x="150.789752" xlink:href="#m9c2d1ffbc6" y="243.84359"/>
     <use style="fill:#1f77b4;stroke:#ff0000;" x="159.331043" xlink:href="#m9c2d1ffbc6" y="268.817776"/>
     <use style="fill:#1f77b4;stroke:#ff0000;" x="167.872333" xlink:href="#m9c2d1ffbc6" y="260.963903"/>
     <use style="fill:#1f77b4;stroke:#ff0000;" x="176.413623" xlink:href="#m9c2d1ffbc6" y="227.909833"/>
     <use style="fill:#1f77b4;stroke:#ff0000;" x="184.954913" xlink:href="#m9c2d1ffbc6" y="169.768571"/>
     <use style="fill:#1f77b4;stroke:#ff0000;" x="193.496204" xlink:href="#m9c2d1ffbc6" y="205.365262"/>
     <use style="fill:#1f77b4;stroke:#ff0000;" x="202.037494" xlink:href="#m9c2d1ffbc6" y="237.571792"/>
     <use style="fill:#1f77b4;stroke:#ff0000;" x="210.578784" xlink:href="#m9c2d1ffbc6" y="195.872811"/>
     <use style="fill:#1f77b4;stroke:#ff0000;" x="219.120074" xlink:href="#m9c2d1ffbc6" y="169.147041"/>
     <use style="fill:#1f77b4;stroke:#ff0000;" x="227.661365" xlink:href="#m9c2d1ffbc6" y="233.503599"/>
     <use style="fill:#1f77b4;stroke:#ff0000;" x="236.202655" xlink:href="#m9c2d1ffbc6" y="207.286353"/>
     <use style="fill:#1f77b4;stroke:#ff0000;" x="244.743945" xlink:href="#m9c2d1ffbc6" y="224.011148"/>
     <use style="fill:#1f77b4;stroke:#ff0000;" x="253.285235" xlink:href="#m9c2d1ffbc6" y="240.622937"/>
     <use style="fill:#1f77b4;stroke:#ff0000;" x="261.826526" xlink:href="#m9c2d1ffbc6" y="231.243491"/>
     <use style="fill:#1f77b4;stroke:#ff0000;" x="270.367816" xlink:href="#m9c2d1ffbc6" y="104.733982"/>
     <use style="fill:#1f77b4;stroke:#ff0000;" x="278.909106" xlink:href="#m9c2d1ffbc6" y="233.164582"/>
     <use style="fill:#1f77b4;stroke:#ff0000;" x="287.450396" xlink:href="#m9c2d1ffbc6" y="188.414457"/>
     <use style="fill:#1f77b4;stroke:#ff0000;" x="295.991686" xlink:href="#m9c2d1ffbc6" y="197.624394"/>
     <use style="fill:#1f77b4;stroke:#ff0000;" x="304.532977" xlink:href="#m9c2d1ffbc6" y="224.576174"/>
     <use style="fill:#1f77b4;stroke:#ff0000;" x="313.074267" xlink:href="#m9c2d1ffbc6" y="170.503106"/>
     <use style="fill:#1f77b4;stroke:#ff0000;" x="321.615557" xlink:href="#m9c2d1ffbc6" y="185.984841"/>
     <use style="fill:#1f77b4;stroke:#ff0000;" x="330.156847" xlink:href="#m9c2d1ffbc6" y="182.820691"/>
     <use style="fill:#1f77b4;stroke:#ff0000;" x="338.698138" xlink:href="#m9c2d1ffbc6" y="153.608803"/>
     <use style="fill:#1f77b4;stroke:#ff0000;" x="347.239428" xlink:href="#m9c2d1ffbc6" y="157.903007"/>
     <use style="fill:#1f77b4;stroke:#ff0000;" x="355.780718" xlink:href="#m9c2d1ffbc6" y="146.545968"/>
     <use style="fill:#1f77b4;stroke:#ff0000;" x="364.322008" xlink:href="#m9c2d1ffbc6" y="145.133401"/>
     <use style="fill:#1f77b4;stroke:#ff0000;" x="372.863299" xlink:href="#m9c2d1ffbc6" y="130.273195"/>
     <use style="fill:#1f77b4;stroke:#ff0000;" x="381.404589" xlink:href="#m9c2d1ffbc6" y="127.900082"/>
     <use style="fill:#1f77b4;stroke:#ff0000;" x="389.945879" xlink:href="#m9c2d1ffbc6" y="118.351128"/>
     <use style="fill:#1f77b4;stroke:#ff0000;" x="398.487169" xlink:href="#m9c2d1ffbc6" y="55.23763"/>
    </g>
   </g>
   <g id="matplotlib.axis_1">
    <g id="xtick_1">
     <g id="line2d_1">
      <defs>
       <path d="M 0 0 
L 0 3.5 
" id="m51c61a8058" style="stroke:#000000;stroke-width:0.8;"/>
      </defs>
      <g>
       <use style="stroke:#000000;stroke-width:0.8;" x="73.832727" xlink:href="#m51c61a8058" y="307.584"/>
      </g>
     </g>
     <g id="text_1">
      <!-- 0.00 -->
      <defs>
       <path d="M 31.78125 66.40625 
Q 24.171875 66.40625 20.328125 58.90625 
Q 16.5 51.421875 16.5 36.375 
Q 16.5 21.390625 20.328125 13.890625 
Q 24.171875 6.390625 31.78125 6.390625 
Q 39.453125 6.390625 43.28125 13.890625 
Q 47.125 21.390625 47.125 36.375 
Q 47.125 51.421875 43.28125 58.90625 
Q 39.453125 66.40625 31.78125 66.40625 
z
M 31.78125 74.21875 
Q 44.046875 74.21875 50.515625 64.515625 
Q 56.984375 54.828125 56.984375 36.375 
Q 56.984375 17.96875 50.515625 8.265625 
Q 44.046875 -1.421875 31.78125 -1.421875 
Q 19.53125 -1.421875 13.0625 8.265625 
Q 6.59375 17.96875 6.59375 36.375 
Q 6.59375 54.828125 13.0625 64.515625 
Q 19.53125 74.21875 31.78125 74.21875 
z
" id="DejaVuSans-48"/>
       <path d="M 10.6875 12.40625 
L 21 12.40625 
L 21 0 
L 10.6875 0 
z
" id="DejaVuSans-46"/>
      </defs>
      <g transform="translate(62.699915 322.182437)scale(0.1 -0.1)">
       <use xlink:href="#DejaVuSans-48"/>
       <use x="63.623047" xlink:href="#DejaVuSans-46"/>
       <use x="95.410156" xlink:href="#DejaVuSans-48"/>
       <use x="159.033203" xlink:href="#DejaVuSans-48"/>
      </g>
     </g>
    </g>
    <g id="xtick_2">
     <g id="line2d_2">
      <g>
       <use style="stroke:#000000;stroke-width:0.8;" x="116.539178" xlink:href="#m51c61a8058" y="307.584"/>
      </g>
     </g>
     <g id="text_2">
      <!-- 0.25 -->
      <defs>
       <path d="M 19.1875 8.296875 
L 53.609375 8.296875 
L 53.609375 0 
L 7.328125 0 
L 7.328125 8.296875 
Q 12.9375 14.109375 22.625 23.890625 
Q 32.328125 33.6875 34.8125 36.53125 
Q 39.546875 41.84375 41.421875 45.53125 
Q 43.3125 49.21875 43.3125 52.78125 
Q 43.3125 58.59375 39.234375 62.25 
Q 35.15625 65.921875 28.609375 65.921875 
Q 23.96875 65.921875 18.8125 64.3125 
Q 13.671875 62.703125 7.8125 59.421875 
L 7.8125 69.390625 
Q 13.765625 71.78125 18.9375 73 
Q 24.125 74.21875 28.421875 74.21875 
Q 39.75 74.21875 46.484375 68.546875 
Q 53.21875 62.890625 53.21875 53.421875 
Q 53.21875 48.921875 51.53125 44.890625 
Q 49.859375 40.875 45.40625 35.40625 
Q 44.1875 33.984375 37.640625 27.21875 
Q 31.109375 20.453125 19.1875 8.296875 
z
" id="DejaVuSans-50"/>
       <path d="M 10.796875 72.90625 
L 49.515625 72.90625 
L 49.515625 64.59375 
L 19.828125 64.59375 
L 19.828125 46.734375 
Q 21.96875 47.46875 24.109375 47.828125 
Q 26.265625 48.1875 28.421875 48.1875 
Q 40.625 48.1875 47.75 41.5 
Q 54.890625 34.8125 54.890625 23.390625 
Q 54.890625 11.625 47.5625 5.09375 
Q 40.234375 -1.421875 26.90625 -1.421875 
Q 22.3125 -1.421875 17.546875 -0.640625 
Q 12.796875 0.140625 7.71875 1.703125 
L 7.71875 11.625 
Q 12.109375 9.234375 16.796875 8.0625 
Q 21.484375 6.890625 26.703125 6.890625 
Q 35.15625 6.890625 40.078125 11.328125 
Q 45.015625 15.765625 45.015625 23.390625 
Q 45.015625 31 40.078125 35.4375 
Q 35.15625 39.890625 26.703125 39.890625 
Q 22.75 39.890625 18.8125 39.015625 
Q 14.890625 38.140625 10.796875 36.28125 
z
" id="DejaVuSans-53"/>
      </defs>
      <g transform="translate(105.406366 322.182437)scale(0.1 -0.1)">
       <use xlink:href="#DejaVuSans-48"/>
       <use x="63.623047" xlink:href="#DejaVuSans-46"/>
       <use x="95.410156" xlink:href="#DejaVuSans-50"/>
       <use x="159.033203" xlink:href="#DejaVuSans-53"/>
      </g>
     </g>
    </g>
    <g id="xtick_3">
     <g id="line2d_3">
      <g>
       <use style="stroke:#000000;stroke-width:0.8;" x="159.24563" xlink:href="#m51c61a8058" y="307.584"/>
      </g>
     </g>
     <g id="text_3">
      <!-- 0.50 -->
      <g transform="translate(148.112817 322.182437)scale(0.1 -0.1)">
       <use xlink:href="#DejaVuSans-48"/>
       <use x="63.623047" xlink:href="#DejaVuSans-46"/>
       <use x="95.410156" xlink:href="#DejaVuSans-53"/>
       <use x="159.033203" xlink:href="#DejaVuSans-48"/>
      </g>
     </g>
    </g>
    <g id="xtick_4">
     <g id="line2d_4">
      <g>
       <use style="stroke:#000000;stroke-width:0.8;" x="201.952081" xlink:href="#m51c61a8058" y="307.584"/>
      </g>
     </g>
     <g id="text_4">
      <!-- 0.75 -->
      <defs>
       <path d="M 8.203125 72.90625 
L 55.078125 72.90625 
L 55.078125 68.703125 
L 28.609375 0 
L 18.3125 0 
L 43.21875 64.59375 
L 8.203125 64.59375 
z
" id="DejaVuSans-55"/>
      </defs>
      <g transform="translate(190.819268 322.182437)scale(0.1 -0.1)">
       <use xlink:href="#DejaVuSans-48"/>
       <use x="63.623047" xlink:href="#DejaVuSans-46"/>
       <use x="95.410156" xlink:href="#DejaVuSans-55"/>
       <use x="159.033203" xlink:href="#DejaVuSans-53"/>
      </g>
     </g>
    </g>
    <g id="xtick_5">
     <g id="line2d_5">
      <g>
       <use style="stroke:#000000;stroke-width:0.8;" x="244.658532" xlink:href="#m51c61a8058" y="307.584"/>
      </g>
     </g>
     <g id="text_5">
      <!-- 1.00 -->
      <defs>
       <path d="M 12.40625 8.296875 
L 28.515625 8.296875 
L 28.515625 63.921875 
L 10.984375 60.40625 
L 10.984375 69.390625 
L 28.421875 72.90625 
L 38.28125 72.90625 
L 38.28125 8.296875 
L 54.390625 8.296875 
L 54.390625 0 
L 12.40625 0 
z
" id="DejaVuSans-49"/>
      </defs>
      <g transform="translate(233.52572 322.182437)scale(0.1 -0.1)">
       <use xlink:href="#DejaVuSans-49"/>
       <use x="63.623047" xlink:href="#DejaVuSans-46"/>
       <use x="95.410156" xlink:href="#DejaVuSans-48"/>
       <use x="159.033203" xlink:href="#DejaVuSans-48"/>
      </g>
     </g>
    </g>
    <g id="xtick_6">
     <g id="line2d_6">
      <g>
       <use style="stroke:#000000;stroke-width:0.8;" x="287.364983" xlink:href="#m51c61a8058" y="307.584"/>
      </g>
     </g>
     <g id="text_6">
      <!-- 1.25 -->
      <g transform="translate(276.232171 322.182437)scale(0.1 -0.1)">
       <use xlink:href="#DejaVuSans-49"/>
       <use x="63.623047" xlink:href="#DejaVuSans-46"/>
       <use x="95.410156" xlink:href="#DejaVuSans-50"/>
       <use x="159.033203" xlink:href="#DejaVuSans-53"/>
      </g>
     </g>
    </g>
    <g id="xtick_7">
     <g id="line2d_7">
      <g>
       <use style="stroke:#000000;stroke-width:0.8;" x="330.071435" xlink:href="#m51c61a8058" y="307.584"/>
      </g>
     </g>
     <g id="text_7">
      <!-- 1.50 -->
      <g transform="translate(318.938622 322.182437)scale(0.1 -0.1)">
       <use xlink:href="#DejaVuSans-49"/>
       <use x="63.623047" xlink:href="#DejaVuSans-46"/>
       <use x="95.410156" xlink:href="#DejaVuSans-53"/>
       <use x="159.033203" xlink:href="#DejaVuSans-48"/>
      </g>
     </g>
    </g>
    <g id="xtick_8">
     <g id="line2d_8">
      <g>
       <use style="stroke:#000000;stroke-width:0.8;" x="372.777886" xlink:href="#m51c61a8058" y="307.584"/>
      </g>
     </g>
     <g id="text_8">
      <!-- 1.75 -->
      <g transform="translate(361.645073 322.182437)scale(0.1 -0.1)">
       <use xlink:href="#DejaVuSans-49"/>
       <use x="63.623047" xlink:href="#DejaVuSans-46"/>
       <use x="95.410156" xlink:href="#DejaVuSans-55"/>
       <use x="159.033203" xlink:href="#DejaVuSans-53"/>
      </g>
     </g>
    </g>
    <g id="text_9">
     <!-- Vertex Set Size -->
     <defs>
      <path d="M 28.609375 0 
L 0.78125 72.90625 
L 11.078125 72.90625 
L 34.1875 11.53125 
L 57.328125 72.90625 
L 67.578125 72.90625 
L 39.796875 0 
z
" id="DejaVuSans-86"/>
      <path d="M 56.203125 29.59375 
L 56.203125 25.203125 
L 14.890625 25.203125 
Q 15.484375 15.921875 20.484375 11.0625 
Q 25.484375 6.203125 34.421875 6.203125 
Q 39.59375 6.203125 44.453125 7.46875 
Q 49.3125 8.734375 54.109375 11.28125 
L 54.109375 2.78125 
Q 49.265625 0.734375 44.1875 -0.34375 
Q 39.109375 -1.421875 33.890625 -1.421875 
Q 20.796875 -1.421875 13.15625 6.1875 
Q 5.515625 13.8125 5.515625 26.8125 
Q 5.515625 40.234375 12.765625 48.109375 
Q 20.015625 56 32.328125 56 
Q 43.359375 56 49.78125 48.890625 
Q 56.203125 41.796875 56.203125 29.59375 
z
M 47.21875 32.234375 
Q 47.125 39.59375 43.09375 43.984375 
Q 39.0625 48.390625 32.421875 48.390625 
Q 24.90625 48.390625 20.390625 44.140625 
Q 15.875 39.890625 15.1875 32.171875 
z
" id="DejaVuSans-101"/>
      <path d="M 41.109375 46.296875 
Q 39.59375 47.171875 37.8125 47.578125 
Q 36.03125 48 33.890625 48 
Q 26.265625 48 22.1875 43.046875 
Q 18.109375 38.09375 18.109375 28.8125 
L 18.109375 0 
L 9.078125 0 
L 9.078125 54.6875 
L 18.109375 54.6875 
L 18.109375 46.1875 
Q 20.953125 51.171875 25.484375 53.578125 
Q 30.03125 56 36.53125 56 
Q 37.453125 56 38.578125 55.875 
Q 39.703125 55.765625 41.0625 55.515625 
z
" id="DejaVuSans-114"/>
      <path d="M 18.3125 70.21875 
L 18.3125 54.6875 
L 36.8125 54.6875 
L 36.8125 47.703125 
L 18.3125 47.703125 
L 18.3125 18.015625 
Q 18.3125 11.328125 20.140625 9.421875 
Q 21.96875 7.515625 27.59375 7.515625 
L 36.8125 7.515625 
L 36.8125 0 
L 27.59375 0 
Q 17.1875 0 13.234375 3.875 
Q 9.28125 7.765625 9.28125 18.015625 
L 9.28125 47.703125 
L 2.6875 47.703125 
L 2.6875 54.6875 
L 9.28125 54.6875 
L 9.28125 70.21875 
z
" id="DejaVuSans-116"/>
      <path d="M 54.890625 54.6875 
L 35.109375 28.078125 
L 55.90625 0 
L 45.3125 0 
L 29.390625 21.484375 
L 13.484375 0 
L 2.875 0 
L 24.125 28.609375 
L 4.6875 54.6875 
L 15.28125 54.6875 
L 29.78125 35.203125 
L 44.28125 54.6875 
z
" id="DejaVuSans-120"/>
      <path id="DejaVuSans-32"/>
      <path d="M 53.515625 70.515625 
L 53.515625 60.890625 
Q 47.90625 63.578125 42.921875 64.890625 
Q 37.9375 66.21875 33.296875 66.21875 
Q 25.25 66.21875 20.875 63.09375 
Q 16.5 59.96875 16.5 54.203125 
Q 16.5 49.359375 19.40625 46.890625 
Q 22.3125 44.4375 30.421875 42.921875 
L 36.375 41.703125 
Q 47.40625 39.59375 52.65625 34.296875 
Q 57.90625 29 57.90625 20.125 
Q 57.90625 9.515625 50.796875 4.046875 
Q 43.703125 -1.421875 29.984375 -1.421875 
Q 24.8125 -1.421875 18.96875 -0.25 
Q 13.140625 0.921875 6.890625 3.21875 
L 6.890625 13.375 
Q 12.890625 10.015625 18.65625 8.296875 
Q 24.421875 6.59375 29.984375 6.59375 
Q 38.421875 6.59375 43.015625 9.90625 
Q 47.609375 13.234375 47.609375 19.390625 
Q 47.609375 24.75 44.3125 27.78125 
Q 41.015625 30.8125 33.5 32.328125 
L 27.484375 33.5 
Q 16.453125 35.6875 11.515625 40.375 
Q 6.59375 45.0625 6.59375 53.421875 
Q 6.59375 63.09375 13.40625 68.65625 
Q 20.21875 74.21875 32.171875 74.21875 
Q 37.3125 74.21875 42.625 73.28125 
Q 47.953125 72.359375 53.515625 70.515625 
z
" id="DejaVuSans-83"/>
      <path d="M 9.421875 54.6875 
L 18.40625 54.6875 
L 18.40625 0 
L 9.421875 0 
z
M 9.421875 75.984375 
L 18.40625 75.984375 
L 18.40625 64.59375 
L 9.421875 64.59375 
z
" id="DejaVuSans-105"/>
      <path d="M 5.515625 54.6875 
L 48.1875 54.6875 
L 48.1875 46.484375 
L 14.40625 7.171875 
L 48.1875 7.171875 
L 48.1875 0 
L 4.296875 0 
L 4.296875 8.203125 
L 38.09375 47.515625 
L 5.515625 47.515625 
z
" id="DejaVuSans-122"/>
     </defs>
     <g transform="translate(197.964687 338.860562)scale(0.1 -0.1)">
      <use xlink:href="#DejaVuSans-86"/>
      <use x="68.298828" xlink:href="#DejaVuSans-101"/>
      <use x="129.822266" xlink:href="#DejaVuSans-114"/>
      <use x="170.935547" xlink:href="#DejaVuSans-116"/>
      <use x="210.144531" xlink:href="#DejaVuSans-101"/>
      <use x="271.652344" xlink:href="#DejaVuSans-120"/>
      <use x="330.832031" xlink:href="#DejaVuSans-32"/>
      <use x="362.619141" xlink:href="#DejaVuSans-83"/>
      <use x="426.095703" xlink:href="#DejaVuSans-101"/>
      <use x="487.619141" xlink:href="#DejaVuSans-116"/>
      <use x="526.828125" xlink:href="#DejaVuSans-32"/>
      <use x="558.615234" xlink:href="#DejaVuSans-83"/>
      <use x="622.091797" xlink:href="#DejaVuSans-105"/>
      <use x="649.875" xlink:href="#DejaVuSans-122"/>
      <use x="702.365234" xlink:href="#DejaVuSans-101"/>
     </g>
    </g>
    <g id="text_10">
     <!-- 1e4 -->
     <defs>
      <path d="M 37.796875 64.3125 
L 12.890625 25.390625 
L 37.796875 25.390625 
z
M 35.203125 72.90625 
L 47.609375 72.90625 
L 47.609375 25.390625 
L 58.015625 25.390625 
L 58.015625 17.1875 
L 47.609375 17.1875 
L 47.609375 0 
L 37.796875 0 
L 37.796875 17.1875 
L 4.890625 17.1875 
L 4.890625 26.703125 
z
" id="DejaVuSans-52"/>
     </defs>
     <g transform="translate(395.841875 334.860562)scale(0.1 -0.1)">
      <use xlink:href="#DejaVuSans-49"/>
      <use x="63.623047" xlink:href="#DejaVuSans-101"/>
      <use x="125.146484" xlink:href="#DejaVuSans-52"/>
     </g>
    </g>
   </g>
   <g id="matplotlib.axis_2">
    <g id="ytick_1">
     <g id="line2d_9">
      <defs>
       <path d="M 0 0 
L -3.5 0 
" id="m7ffba551a0" style="stroke:#000000;stroke-width:0.8;"/>
      </defs>
      <g>
       <use style="stroke:#000000;stroke-width:0.8;" x="57.6" xlink:href="#m7ffba551a0" y="295.487043"/>
      </g>
     </g>
     <g id="text_11">
      <!-- 0 -->
      <g transform="translate(44.2375 299.286262)scale(0.1 -0.1)">
       <use xlink:href="#DejaVuSans-48"/>
      </g>
     </g>
    </g>
    <g id="ytick_2">
     <g id="line2d_10">
      <g>
       <use style="stroke:#000000;stroke-width:0.8;" x="57.6" xlink:href="#m7ffba551a0" y="238.984359"/>
      </g>
     </g>
     <g id="text_12">
      <!-- 1000 -->
      <g transform="translate(25.15 242.783578)scale(0.1 -0.1)">
       <use xlink:href="#DejaVuSans-49"/>
       <use x="63.623047" xlink:href="#DejaVuSans-48"/>
       <use x="127.246094" xlink:href="#DejaVuSans-48"/>
       <use x="190.869141" xlink:href="#DejaVuSans-48"/>
      </g>
     </g>
    </g>
    <g id="ytick_3">
     <g id="line2d_11">
      <g>
       <use style="stroke:#000000;stroke-width:0.8;" x="57.6" xlink:href="#m7ffba551a0" y="182.481675"/>
      </g>
     </g>
     <g id="text_13">
      <!-- 2000 -->
      <g transform="translate(25.15 186.280894)scale(0.1 -0.1)">
       <use xlink:href="#DejaVuSans-50"/>
       <use x="63.623047" xlink:href="#DejaVuSans-48"/>
       <use x="127.246094" xlink:href="#DejaVuSans-48"/>
       <use x="190.869141" xlink:href="#DejaVuSans-48"/>
      </g>
     </g>
    </g>
    <g id="ytick_4">
     <g id="line2d_12">
      <g>
       <use style="stroke:#000000;stroke-width:0.8;" x="57.6" xlink:href="#m7ffba551a0" y="125.978991"/>
      </g>
     </g>
     <g id="text_14">
      <!-- 3000 -->
      <defs>
       <path d="M 40.578125 39.3125 
Q 47.65625 37.796875 51.625 33 
Q 55.609375 28.21875 55.609375 21.1875 
Q 55.609375 10.40625 48.1875 4.484375 
Q 40.765625 -1.421875 27.09375 -1.421875 
Q 22.515625 -1.421875 17.65625 -0.515625 
Q 12.796875 0.390625 7.625 2.203125 
L 7.625 11.71875 
Q 11.71875 9.328125 16.59375 8.109375 
Q 21.484375 6.890625 26.8125 6.890625 
Q 36.078125 6.890625 40.9375 10.546875 
Q 45.796875 14.203125 45.796875 21.1875 
Q 45.796875 27.640625 41.28125 31.265625 
Q 36.765625 34.90625 28.71875 34.90625 
L 20.21875 34.90625 
L 20.21875 43.015625 
L 29.109375 43.015625 
Q 36.375 43.015625 40.234375 45.921875 
Q 44.09375 48.828125 44.09375 54.296875 
Q 44.09375 59.90625 40.109375 62.90625 
Q 36.140625 65.921875 28.71875 65.921875 
Q 24.65625 65.921875 20.015625 65.03125 
Q 15.375 64.15625 9.8125 62.3125 
L 9.8125 71.09375 
Q 15.4375 72.65625 20.34375 73.4375 
Q 25.25 74.21875 29.59375 74.21875 
Q 40.828125 74.21875 47.359375 69.109375 
Q 53.90625 64.015625 53.90625 55.328125 
Q 53.90625 49.265625 50.4375 45.09375 
Q 46.96875 40.921875 40.578125 39.3125 
z
" id="DejaVuSans-51"/>
      </defs>
      <g transform="translate(25.15 129.77821)scale(0.1 -0.1)">
       <use xlink:href="#DejaVuSans-51"/>
       <use x="63.623047" xlink:href="#DejaVuSans-48"/>
       <use x="127.246094" xlink:href="#DejaVuSans-48"/>
       <use x="190.869141" xlink:href="#DejaVuSans-48"/>
      </g>
     </g>
    </g>
    <g id="ytick_5">
     <g id="line2d_13">
      <g>
       <use style="stroke:#000000;stroke-width:0.8;" x="57.6" xlink:href="#m7ffba551a0" y="69.476307"/>
      </g>
     </g>
     <g id="text_15">
      <!-- 4000 -->
      <g transform="translate(25.15 73.275526)scale(0.1 -0.1)">
       <use xlink:href="#DejaVuSans-52"/>
       <use x="63.623047" xlink:href="#DejaVuSans-48"/>
       <use x="127.246094" xlink:href="#DejaVuSans-48"/>
       <use x="190.869141" xlink:href="#DejaVuSans-48"/>
      </g>
     </g>
    </g>
    <g id="text_16">
     <!-- Execution Time (s) -->
     <defs>
      <path d="M 9.8125 72.90625 
L 55.90625 72.90625 
L 55.90625 64.59375 
L 19.671875 64.59375 
L 19.671875 43.015625 
L 54.390625 43.015625 
L 54.390625 34.71875 
L 19.671875 34.71875 
L 19.671875 8.296875 
L 56.78125 8.296875 
L 56.78125 0 
L 9.8125 0 
z
" id="DejaVuSans-69"/>
      <path d="M 48.78125 52.59375 
L 48.78125 44.1875 
Q 44.96875 46.296875 41.140625 47.34375 
Q 37.3125 48.390625 33.40625 48.390625 
Q 24.65625 48.390625 19.8125 42.84375 
Q 14.984375 37.3125 14.984375 27.296875 
Q 14.984375 17.28125 19.8125 11.734375 
Q 24.65625 6.203125 33.40625 6.203125 
Q 37.3125 6.203125 41.140625 7.25 
Q 44.96875 8.296875 48.78125 10.40625 
L 48.78125 2.09375 
Q 45.015625 0.34375 40.984375 -0.53125 
Q 36.96875 -1.421875 32.421875 -1.421875 
Q 20.0625 -1.421875 12.78125 6.34375 
Q 5.515625 14.109375 5.515625 27.296875 
Q 5.515625 40.671875 12.859375 48.328125 
Q 20.21875 56 33.015625 56 
Q 37.15625 56 41.109375 55.140625 
Q 45.0625 54.296875 48.78125 52.59375 
z
" id="DejaVuSans-99"/>
      <path d="M 8.5 21.578125 
L 8.5 54.6875 
L 17.484375 54.6875 
L 17.484375 21.921875 
Q 17.484375 14.15625 20.5 10.265625 
Q 23.53125 6.390625 29.59375 6.390625 
Q 36.859375 6.390625 41.078125 11.03125 
Q 45.3125 15.671875 45.3125 23.6875 
L 45.3125 54.6875 
L 54.296875 54.6875 
L 54.296875 0 
L 45.3125 0 
L 45.3125 8.40625 
Q 42.046875 3.421875 37.71875 1 
Q 33.40625 -1.421875 27.6875 -1.421875 
Q 18.265625 -1.421875 13.375 4.4375 
Q 8.5 10.296875 8.5 21.578125 
z
M 31.109375 56 
z
" id="DejaVuSans-117"/>
      <path d="M 30.609375 48.390625 
Q 23.390625 48.390625 19.1875 42.75 
Q 14.984375 37.109375 14.984375 27.296875 
Q 14.984375 17.484375 19.15625 11.84375 
Q 23.34375 6.203125 30.609375 6.203125 
Q 37.796875 6.203125 41.984375 11.859375 
Q 46.1875 17.53125 46.1875 27.296875 
Q 46.1875 37.015625 41.984375 42.703125 
Q 37.796875 48.390625 30.609375 48.390625 
z
M 30.609375 56 
Q 42.328125 56 49.015625 48.375 
Q 55.71875 40.765625 55.71875 27.296875 
Q 55.71875 13.875 49.015625 6.21875 
Q 42.328125 -1.421875 30.609375 -1.421875 
Q 18.84375 -1.421875 12.171875 6.21875 
Q 5.515625 13.875 5.515625 27.296875 
Q 5.515625 40.765625 12.171875 48.375 
Q 18.84375 56 30.609375 56 
z
" id="DejaVuSans-111"/>
      <path d="M 54.890625 33.015625 
L 54.890625 0 
L 45.90625 0 
L 45.90625 32.71875 
Q 45.90625 40.484375 42.875 44.328125 
Q 39.84375 48.1875 33.796875 48.1875 
Q 26.515625 48.1875 22.3125 43.546875 
Q 18.109375 38.921875 18.109375 30.90625 
L 18.109375 0 
L 9.078125 0 
L 9.078125 54.6875 
L 18.109375 54.6875 
L 18.109375 46.1875 
Q 21.34375 51.125 25.703125 53.5625 
Q 30.078125 56 35.796875 56 
Q 45.21875 56 50.046875 50.171875 
Q 54.890625 44.34375 54.890625 33.015625 
z
" id="DejaVuSans-110"/>
      <path d="M -0.296875 72.90625 
L 61.375 72.90625 
L 61.375 64.59375 
L 35.5 64.59375 
L 35.5 0 
L 25.59375 0 
L 25.59375 64.59375 
L -0.296875 64.59375 
z
" id="DejaVuSans-84"/>
      <path d="M 52 44.1875 
Q 55.375 50.25 60.0625 53.125 
Q 64.75 56 71.09375 56 
Q 79.640625 56 84.28125 50.015625 
Q 88.921875 44.046875 88.921875 33.015625 
L 88.921875 0 
L 79.890625 0 
L 79.890625 32.71875 
Q 79.890625 40.578125 77.09375 44.375 
Q 74.3125 48.1875 68.609375 48.1875 
Q 61.625 48.1875 57.5625 43.546875 
Q 53.515625 38.921875 53.515625 30.90625 
L 53.515625 0 
L 44.484375 0 
L 44.484375 32.71875 
Q 44.484375 40.625 41.703125 44.40625 
Q 38.921875 48.1875 33.109375 48.1875 
Q 26.21875 48.1875 22.15625 43.53125 
Q 18.109375 38.875 18.109375 30.90625 
L 18.109375 0 
L 9.078125 0 
L 9.078125 54.6875 
L 18.109375 54.6875 
L 18.109375 46.1875 
Q 21.1875 51.21875 25.484375 53.609375 
Q 29.78125 56 35.6875 56 
Q 41.65625 56 45.828125 52.96875 
Q 50 49.953125 52 44.1875 
z
" id="DejaVuSans-109"/>
      <path d="M 31 75.875 
Q 24.46875 64.65625 21.28125 53.65625 
Q 18.109375 42.671875 18.109375 31.390625 
Q 18.109375 20.125 21.3125 9.0625 
Q 24.515625 -2 31 -13.1875 
L 23.1875 -13.1875 
Q 15.875 -1.703125 12.234375 9.375 
Q 8.59375 20.453125 8.59375 31.390625 
Q 8.59375 42.28125 12.203125 53.3125 
Q 15.828125 64.359375 23.1875 75.875 
z
" id="DejaVuSans-40"/>
      <path d="M 44.28125 53.078125 
L 44.28125 44.578125 
Q 40.484375 46.53125 36.375 47.5 
Q 32.28125 48.484375 27.875 48.484375 
Q 21.1875 48.484375 17.84375 46.4375 
Q 14.5 44.390625 14.5 40.28125 
Q 14.5 37.15625 16.890625 35.375 
Q 19.28125 33.59375 26.515625 31.984375 
L 29.59375 31.296875 
Q 39.15625 29.25 43.1875 25.515625 
Q 47.21875 21.78125 47.21875 15.09375 
Q 47.21875 7.46875 41.1875 3.015625 
Q 35.15625 -1.421875 24.609375 -1.421875 
Q 20.21875 -1.421875 15.453125 -0.5625 
Q 10.6875 0.296875 5.421875 2 
L 5.421875 11.28125 
Q 10.40625 8.6875 15.234375 7.390625 
Q 20.0625 6.109375 24.8125 6.109375 
Q 31.15625 6.109375 34.5625 8.28125 
Q 37.984375 10.453125 37.984375 14.40625 
Q 37.984375 18.0625 35.515625 20.015625 
Q 33.0625 21.96875 24.703125 23.78125 
L 21.578125 24.515625 
Q 13.234375 26.265625 9.515625 29.90625 
Q 5.8125 33.546875 5.8125 39.890625 
Q 5.8125 47.609375 11.28125 51.796875 
Q 16.75 56 26.8125 56 
Q 31.78125 56 36.171875 55.265625 
Q 40.578125 54.546875 44.28125 53.078125 
z
" id="DejaVuSans-115"/>
      <path d="M 8.015625 75.875 
L 15.828125 75.875 
Q 23.140625 64.359375 26.78125 53.3125 
Q 30.421875 42.28125 30.421875 31.390625 
Q 30.421875 20.453125 26.78125 9.375 
Q 23.140625 -1.703125 15.828125 -13.1875 
L 8.015625 -13.1875 
Q 14.5 -2 17.703125 9.0625 
Q 20.90625 20.125 20.90625 31.390625 
Q 20.90625 42.671875 17.703125 53.65625 
Q 14.5 64.65625 8.015625 75.875 
z
" id="DejaVuSans-41"/>
     </defs>
     <g transform="translate(16.070312 221.288156)rotate(-90)scale(0.1 -0.1)">
      <use xlink:href="#DejaVuSans-69"/>
      <use x="63.183594" xlink:href="#DejaVuSans-120"/>
      <use x="122.316406" xlink:href="#DejaVuSans-101"/>
      <use x="183.839844" xlink:href="#DejaVuSans-99"/>
      <use x="238.820312" xlink:href="#DejaVuSans-117"/>
      <use x="302.199219" xlink:href="#DejaVuSans-116"/>
      <use x="341.408203" xlink:href="#DejaVuSans-105"/>
      <use x="369.191406" xlink:href="#DejaVuSans-111"/>
      <use x="430.373047" xlink:href="#DejaVuSans-110"/>
      <use x="493.751953" xlink:href="#DejaVuSans-32"/>
      <use x="525.539062" xlink:href="#DejaVuSans-84"/>
      <use x="586.576172" xlink:href="#DejaVuSans-105"/>
      <use x="614.359375" xlink:href="#DejaVuSans-109"/>
      <use x="711.771484" xlink:href="#DejaVuSans-101"/>
      <use x="773.294922" xlink:href="#DejaVuSans-32"/>
      <use x="805.082031" xlink:href="#DejaVuSans-40"/>
      <use x="844.095703" xlink:href="#DejaVuSans-115"/>
      <use x="896.195312" xlink:href="#DejaVuSans-41"/>
     </g>
    </g>
   </g>
   <g id="line2d_14">
    <path clip-path="url(#pe322297630)" d="M 73.832727 295.462628 
L 88.899563 289.684523 
L 91.547363 288.355863 
L 94.246411 286.749558 
L 104.205555 280.48114 
L 105.947979 279.655139 
L 107.639154 279.09564 
L 109.296164 278.778856 
L 110.936092 278.690859 
L 112.593102 278.827138 
L 117.290812 279.328136 
L 121.595622 279.573101 
L 123.286798 279.446826 
L 124.977973 279.097367 
L 126.703314 278.510857 
L 128.46282 277.673496 
L 132.015996 275.860359 
L 133.502181 275.464682 
L 134.9542 275.305573 
L 136.40622 275.37129 
L 137.858239 275.661834 
L 138.59279 275.753997 
L 139.19068 275.579947 
L 139.805653 275.163686 
L 140.488956 274.419012 
L 141.24059 273.256822 
L 142.094719 271.499915 
L 143.034261 269.031303 
L 144.076298 265.63662 
L 145.220831 261.112041 
L 146.467859 255.233693 
L 147.526979 250.390928 
L 148.398191 247.404657 
L 149.149825 245.553051 
L 149.798963 244.49423 
L 150.345605 243.990993 
L 150.806835 243.842602 
L 151.233899 243.930614 
L 151.695129 244.269112 
L 152.207607 244.941723 
L 152.805497 246.120905 
L 153.4888 247.988722 
L 154.274599 250.822656 
L 155.179976 254.983686 
L 156.392839 260.384989 
L 157.486124 264.292103 
L 158.459831 267.004214 
L 159.331043 268.817776 
L 160.099759 269.937145 
L 160.765979 270.542633 
L 161.346787 270.794238 
L 161.89343 270.795968 
L 162.440072 270.569748 
L 163.02088 270.079624 
L 163.670018 269.228597 
L 165.053707 266.919183 
L 166.522809 264.024599 
L 168.094406 260.423385 
L 169.768499 256.013471 
L 171.545088 250.68613 
L 172.928777 245.91396 
L 174.039144 241.143994 
L 175.252008 234.900641 
L 176.567366 226.910436 
L 177.98522 216.876806 
L 179.50557 204.480069 
L 182.477939 179.518983 
L 183.349151 174.788646 
L 184.100784 171.84184 
L 184.73284 170.177099 
L 185.245317 169.372734 
L 185.672382 169.075545 
L 186.031116 169.088036 
L 186.38985 169.339863 
L 186.799832 169.920729 
L 187.295227 171.039685 
L 187.893117 172.997985 
L 188.57642 176.050112 
L 189.379302 180.722227 
L 192.488331 199.561475 
L 195.494865 216.435022 
L 198.159748 230.192631 
L 199.03096 233.62376 
L 199.782593 235.758168 
L 200.431731 236.985939 
L 200.961291 237.564971 
L 201.405438 237.757834 
L 201.81542 237.698795 
L 202.242485 237.395291 
L 202.720797 236.762195 
L 203.284522 235.618367 
L 203.93366 233.768227 
L 204.685294 230.913182 
L 205.539423 226.740302 
L 206.530212 220.699749 
L 209.485499 202.30937 
L 212.33829 185.929957 
L 215.020255 171.788307 
L 215.754806 168.841341 
L 216.369779 167.204631 
L 216.865174 166.436637 
L 217.258073 166.176799 
L 217.599725 166.201994 
L 217.941376 166.460809 
L 218.351358 167.079764 
L 218.846753 168.27651 
L 219.427561 170.305108 
L 220.110864 173.556086 
L 220.896663 178.44996 
L 221.784957 185.470322 
L 222.775747 195.163842 
L 225.252721 220.733643 
L 226.158097 227.021575 
L 226.943896 231.026239 
L 227.610117 233.363969 
L 228.156759 234.557308 
L 228.583824 235.03501 
L 228.925476 235.13006 
L 229.250045 234.983968 
L 229.608779 234.554527 
L 230.052926 233.633005 
L 230.582486 231.970569 
L 231.214541 229.183735 
L 231.949092 224.848068 
L 233.076543 218.105178 
L 234.084415 213.352392 
L 234.972709 210.161328 
L 235.741425 208.154426 
L 236.407646 206.981448 
L 236.971371 206.399678 
L 237.449683 206.201324 
L 237.876748 206.253281 
L 238.320895 206.536548 
L 238.81629 207.128235 
L 239.397097 208.192233 
L 240.063318 209.904875 
L 241.088273 213.302153 
L 242.984439 219.213078 
L 244.77811 224.09777 
L 246.452203 228.036907 
L 248.0238 231.190183 
L 249.732059 234.096005 
L 252.004042 238.14697 
L 254.37852 242.845016 
L 256.838412 248.212546 
L 258.000027 250.606088 
L 258.307514 250.749864 
L 258.580835 250.628302 
L 258.888322 250.211012 
L 259.281221 249.24555 
L 259.759533 247.415628 
L 260.340341 244.2273 
L 261.023644 239.1195 
L 261.809443 231.432152 
L 262.697737 220.406165 
L 263.688527 205.183441 
L 264.781812 184.806866 
L 265.977593 158.220317 
L 267.105043 133.641607 
L 267.942089 120.214084 
L 268.659558 112.006832 
L 269.257448 107.495826 
L 269.718678 105.462176 
L 270.060329 104.76789 
L 270.282403 104.687243 
L 270.487394 104.871988 
L 270.743633 105.452822 
L 271.085284 106.83204 
L 271.529431 109.658318 
L 272.076074 114.740324 
L 272.725212 123.073338 
L 273.476845 135.839258 
L 274.330974 154.406595 
L 276.261306 198.651695 
L 277.235013 214.953925 
L 278.089142 225.796266 
L 278.823693 232.53601 
L 279.438666 236.340427 
L 279.934061 238.186767 
L 280.309878 238.862257 
L 280.566116 238.964106 
L 280.78819 238.817111 
L 281.061511 238.336298 
L 281.420245 237.203033 
L 281.881475 234.908336 
L 282.428118 230.968426 
L 283.077256 224.570547 
L 284.683018 207.612479 
L 285.793386 198.376682 
L 286.784176 191.869945 
L 287.67247 187.426978 
L 288.441186 184.643332 
L 289.090324 183.059505 
L 289.619884 182.287475 
L 290.046948 182.005241 
L 290.422765 182.008264 
L 290.798582 182.246629 
L 291.225647 182.803168 
L 291.738124 183.871973 
L 293.053483 187.449871 
L 294.454254 191.924461 
L 295.957521 197.488761 
L 297.563284 204.304197 
L 299.288625 212.630741 
L 301.355617 222.680776 
L 302.021837 224.597375 
L 302.56848 225.567916 
L 303.012627 225.956878 
L 303.371361 226.009497 
L 303.730095 225.828396 
L 304.122995 225.36188 
L 304.601307 224.415545 
L 305.165032 222.7668 
L 305.831253 220.074197 
L 306.599969 215.965693 
L 307.471181 210.012008 
L 308.444888 201.726622 
L 310.426467 184.128109 
L 311.417257 177.664996 
L 312.288468 173.330386 
L 313.057184 170.553653 
L 313.706322 168.973935 
L 314.235882 168.204085 
L 314.662947 167.922843 
L 315.038764 167.926172 
L 315.414581 168.164312 
L 315.841645 168.719952 
L 316.354122 169.786968 
L 316.952013 171.583676 
L 317.92572 175.411704 
L 319.206913 179.903364 
L 320.385611 183.264835 
L 321.444731 185.655164 
L 322.401356 187.301507 
L 323.255485 188.360271 
L 324.024201 188.981494 
L 324.724587 189.273942 
L 325.373725 189.31209 
L 326.022863 189.126319 
L 326.706166 188.693422 
L 327.4578 187.938501 
L 328.277764 186.781916 
L 329.18314 185.101155 
L 330.17393 182.776309 
L 331.267215 179.622118 
L 332.462996 175.464827 
L 333.761272 170.114388 
L 336.186998 159.785148 
L 337.194871 156.7179 
L 338.100247 154.635185 
L 338.886046 153.343561 
L 339.569349 152.610197 
L 340.16724 152.265942 
L 340.713882 152.194132 
L 341.243442 152.345862 
L 341.807167 152.746691 
L 342.439223 153.489579 
L 343.207939 154.775602 
L 344.181646 156.228312 
L 345.052858 157.15164 
L 345.838656 157.679474 
L 346.556125 157.908792 
L 347.256511 157.90006 
L 347.956896 157.66154 
L 348.691447 157.164509 
L 349.477246 156.352981 
L 350.348458 155.115123 
L 351.305082 153.346361 
L 353.115836 149.838248 
L 354.277451 148.125721 
L 355.353654 146.921741 
L 356.327361 146.149543 
L 357.232738 145.701825 
L 358.086867 145.518215 
L 358.923913 145.56318 
L 359.760959 145.830776 
L 361.212979 146.374164 
L 362.01586 146.375518 
L 362.818741 146.152824 
L 363.655788 145.682102 
L 364.544082 144.916219 
L 365.500706 143.784712 
L 366.542744 142.190242 
L 367.670194 140.040006 
L 369.036801 136.904519 
L 370.42049 134.011404 
L 371.684601 131.858661 
L 372.863299 130.273195 
L 373.939501 129.18111 
L 374.930291 128.475722 
L 375.869833 128.072515 
L 376.758127 127.929166 
L 378.193064 127.998596 
L 380.516295 127.969748 
L 382.839526 127.719024 
L 385.179839 127.242127 
L 386.153546 126.886771 
L 386.717271 126.376231 
L 387.349327 125.488925 
L 388.066795 124.078322 
L 388.886759 121.940994 
L 389.792136 118.93023 
L 390.800008 114.775248 
L 391.910376 109.217819 
L 393.123239 101.973455 
L 394.438598 92.731407 
L 395.873535 81.004973 
L 397.410967 66.537051 
L 398.470087 55.424524 
L 398.470087 55.424524 
" style="fill:none;stroke:#1f77b4;stroke-linecap:square;stroke-width:1.5;"/>
   </g>
   <g id="line2d_15">
    <path clip-path="url(#pe322297630)" d="M 73.832727 295.488 
L 76.770931 295.433818 
L 80.443686 295.325924 
L 92.059841 295.0376 
L 95.442192 294.942831 
L 113.788883 294.467828 
L 117.427473 294.38372 
L 137.721578 293.846479 
L 141.30892 293.764229 
L 152.754249 293.523973 
L 153.813369 293.703575 
L 154.189186 293.396414 
L 154.633333 292.712712 
L 155.726618 290.822752 
L 156.017022 290.834357 
L 156.307426 291.095415 
L 156.66616 291.762296 
L 157.315298 293.049156 
L 157.79361 293.53147 
L 158.18651 293.630651 
L 158.613574 293.477984 
L 159.467703 293.250794 
L 160.321832 293.254875 
L 161.96176 293.260532 
L 168.077324 293.054889 
L 173.765823 292.917691 
L 193.27413 292.404586 
L 194.042846 292.649936 
L 194.93114 293.186061 
L 195.956095 294.065755 
L 196.656481 294.609368 
L 197.254371 294.797858 
L 197.835179 294.745375 
L 199.133455 294.603813 
L 200.705053 294.678983 
L 201.81542 294.685202 
L 202.464558 294.403189 
L 203.660339 293.792421 
L 204.155734 293.889249 
L 204.719459 294.251144 
L 205.436927 294.598755 
L 206.103148 294.676528 
L 209.212178 294.585613 
L 221.289562 294.51177 
L 225.440629 294.470502 
L 241.942402 294.340803 
L 247.88714 294.244194 
L 265.721354 294.115347 
L 269.906586 294.06976 
L 272.605634 293.976027 
L 273.938075 293.794777 
L 274.928865 293.952224 
L 276.124645 294.045655 
L 287.894543 293.963731 
L 296.025852 293.902823 
L 303.16637 293.850308 
L 310.084815 293.778261 
L 314.389626 293.735697 
L 337.536522 293.604476 
L 341.311773 293.56679 
L 361.520465 293.432706 
L 364.800321 293.409886 
L 366.354836 293.348716 
L 368.080176 293.193856 
L 370.574233 293.365423 
L 372.709555 293.339438 
L 381.472919 293.283282 
L 398.470087 293.170616 
L 398.470087 293.170616 
" style="fill:none;stroke:#ff7f0e;stroke-linecap:square;stroke-width:1.5;"/>
   </g>
   <g id="line2d_16">
    <path clip-path="url(#pe322297630)" d="M 73.832727 295.018174 
L 75.096838 292.36121 
L 76.258454 290.415675 
L 77.197996 288.846101 
L 78.017959 286.939195 
L 79.709135 282.777919 
L 81.058659 280.10274 
L 82.134861 277.952104 
L 82.732752 275.960505 
L 83.586881 272.18021 
L 84.287267 269.719114 
L 84.868074 268.393458 
L 85.465965 267.160305 
L 85.995525 265.4144 
L 86.62758 262.510215 
L 87.276718 259.640333 
L 87.75503 258.406656 
L 88.130847 257.963139 
L 88.421251 257.931716 
L 88.899563 257.897231 
L 89.377876 257.633462 
L 89.907436 257.073984 
L 90.283252 256.409253 
L 90.624904 255.176583 
L 91.051968 252.71201 
L 91.581528 248.230515 
L 92.230666 242.811426 
L 92.45274 242.435271 
L 92.572318 242.579042 
L 92.760226 243.294757 
L 93.033548 245.404431 
L 93.392282 250.095433 
L 94.673475 269.184006 
L 95.356779 275.841164 
L 95.869256 278.988894 
L 96.262155 280.26622 
L 96.535477 280.573317 
L 96.723385 280.507685 
L 96.945459 280.143629 
L 97.714175 278.778059 
L 98.380395 278.020565 
L 99.132029 277.538244 
L 100.9257 276.64378 
L 102.206893 275.836047 
L 104.683868 274.245371 
L 106.81919 273.043912 
L 107.758732 272.525077 
L 108.33954 271.850878 
L 109.057008 270.636022 
L 109.791559 269.586443 
L 110.423615 269.039319 
L 111.58523 268.220921 
L 112.388111 267.278347 
L 113.276406 266.320999 
L 114.506351 265.115136 
L 114.916333 263.953747 
L 115.428811 261.747811 
L 116.317105 257.732333 
L 116.607509 257.380752 
L 116.795417 257.436046 
L 117.017491 257.787852 
L 117.324977 258.78729 
L 118.127858 261.739302 
L 118.53784 262.450259 
L 118.845327 262.622213 
L 119.101566 262.528966 
L 119.4603 262.094831 
L 119.887364 261.194101 
L 120.416924 259.497929 
L 121.595622 255.410621 
L 121.886026 255.213314 
L 122.1081 255.315639 
L 122.381421 255.742828 
L 123.30388 257.518762 
L 123.628449 257.621909 
L 123.918853 257.470831 
L 124.260505 256.999556 
L 124.704652 256.444047 
L 125.046304 256.325343 
L 125.35379 256.447955 
L 125.695442 256.83913 
L 126.857057 258.443274 
L 127.198709 258.46037 
L 127.54036 258.25222 
L 129.709848 256.331331 
L 134.42464 253.0693 
L 135.996238 251.952985 
L 138.268221 250.443056 
L 140.693947 248.739876 
L 141.360168 248.668171 
L 141.633489 248.55148 
L 141.958058 248.139149 
L 142.350958 247.242337 
L 142.846352 245.490774 
L 143.854225 241.667249 
L 144.315454 240.80854 
L 144.674189 240.547051 
L 146.416612 240.068793 
L 146.912007 239.694464 
L 147.458649 238.975772 
L 148.090705 237.744373 
L 148.756925 236.490768 
L 149.201072 236.088064 
L 149.576889 236.020666 
L 150.208945 236.018266 
L 150.465183 235.466663 
L 150.806835 234.117661 
L 151.233899 231.445378 
L 152.275937 224.354514 
L 152.49801 224.10078 
L 152.651754 224.225961 
L 152.856745 224.775762 
L 153.147148 226.303715 
L 153.915865 230.84944 
L 154.206268 231.356274 
L 154.377094 231.327426 
L 154.565003 231.015938 
L 154.838324 230.039688 
L 155.692453 226.482453 
L 155.965774 226.203882 
L 156.153683 226.269302 
L 156.375756 226.616532 
L 156.683243 227.580044 
L 157.26405 229.493186 
L 157.691115 230.23146 
L 158.015684 230.413134 
L 158.289005 230.311971 
L 159.809355 229.198943 
L 160.680566 228.870983 
L 161.124714 228.297848 
L 161.654274 227.20888 
L 162.474237 225.46459 
L 162.867137 225.145602 
L 163.191706 225.147816 
L 163.516275 225.390448 
L 164.045835 225.835083 
L 164.489982 225.932321 
L 164.899964 225.798501 
L 165.378276 225.384083 
L 167.052369 223.853899 
L 168.043159 223.201809 
L 169.290187 222.450519 
L 169.785582 221.678345 
L 170.36639 220.338592 
L 171.135106 218.57406 
L 171.801326 217.560853 
L 172.347969 217.094259 
L 172.792116 216.987523 
L 173.219181 217.119892 
L 173.663328 217.501954 
L 174.397879 218.18112 
L 174.824943 218.245007 
L 175.234925 218.069784 
L 175.747402 217.566312 
L 178.958928 214.214313 
L 179.625148 213.649791 
L 180.359699 212.724062 
L 181.55548 210.756478 
L 182.785426 208.85851 
L 183.109995 208.791945 
L 183.417481 208.974973 
L 183.776215 209.49113 
L 184.715757 211.054854 
L 184.989078 211.037854 
L 185.2624 210.783595 
L 185.604051 210.132125 
L 186.594841 207.964385 
L 187.038988 207.547863 
L 187.414805 207.473969 
L 187.841869 207.434593 
L 188.234769 207.137666 
L 188.678916 206.499034 
L 189.208476 205.314724 
L 189.63554 203.800859 
L 190.1651 201.000163 
L 190.780073 196.464626 
L 191.309633 192.864071 
L 191.600037 192.128842 
L 191.770863 192.115868 
L 191.941689 192.413645 
L 192.180845 193.352594 
L 192.522496 195.750502 
L 193.120387 200.09832 
L 193.479121 201.288211 
L 193.718277 201.484067 
L 193.889103 201.331357 
L 194.111176 200.768295 
L 195.084884 197.721615 
L 195.32404 197.64269 
L 195.546113 197.822605 
L 195.819435 198.378757 
L 196.656481 200.369234 
L 196.91272 200.442706 
L 197.151876 200.267546 
L 197.44228 199.738476 
L 197.920592 198.271137 
L 198.450152 197.048882 
L 198.877216 196.552203 
L 199.201785 196.466737 
L 199.56052 196.626099 
L 200.072997 196.741055 
L 200.551309 196.622017 
L 201.063787 196.251982 
L 201.798338 195.382109 
L 202.635384 194.038024 
L 203.523678 192.177168 
L 204.480303 189.615633 
L 204.907367 188.668792 
L 205.180689 188.518034 
L 205.402762 188.659782 
L 205.676083 189.159458 
L 206.034818 190.359881 
L 206.837699 193.293483 
L 207.076855 193.446181 
L 207.264763 193.311467 
L 207.50392 192.81586 
L 207.828489 191.562556 
L 208.580122 188.377398 
L 208.921774 187.842958 
L 209.143847 187.814146 
L 209.365921 188.036333 
L 209.656325 188.70561 
L 210.271298 190.221119 
L 210.766692 190.923781 
L 211.176674 191.155637 
L 211.484161 191.1032 
L 211.7404 190.774493 
L 212.064969 189.936458 
L 212.47495 188.204255 
L 212.987428 184.981553 
L 213.670731 180.693384 
L 214.080713 179.398065 
L 214.371117 179.070489 
L 214.576108 179.133805 
L 214.815264 179.510767 
L 215.242329 180.112506 
L 215.566898 180.233203 
L 215.857301 180.094765 
L 216.18187 179.66462 
L 216.608935 178.671507 
L 217.685138 175.460443 
L 218.795505 172.190512 
L 219.137157 171.874089 
L 219.393396 171.899423 
L 219.666717 172.174588 
L 220.059616 172.961421 
L 220.657507 173.945553 
L 221.152901 174.372529 
L 221.562883 174.459669 
L 222.331599 174.279647 
L 223.305307 173.842828 
L 224.432757 173.074758 
L 227.029309 171.146901 
L 228.82298 170.048005 
L 229.232962 169.307059 
L 229.728357 167.910494 
L 230.34333 165.443307 
L 231.692854 158.954009 
L 232.290744 156.413051 
L 232.581148 155.987585 
L 232.769056 156.011891 
L 232.974047 156.306887 
L 233.264451 157.204367 
L 233.65735 159.276426 
L 234.272323 162.185656 
L 234.767718 163.564698 
L 235.143535 164.036772 
L 235.433939 164.083251 
L 235.792673 163.918157 
L 236.202655 163.455989 
L 236.680967 162.548092 
L 237.945078 159.872372 
L 238.372143 159.575056 
L 238.730877 159.582747 
L 239.226272 159.598302 
L 239.721666 159.38625 
L 240.251226 158.907879 
L 240.644126 158.300928 
L 241.019942 157.195492 
L 241.481172 155.093042 
L 242.044897 151.407251 
L 242.694035 147.250952 
L 243.1211 145.806003 
L 243.428586 145.406515 
L 243.633577 145.438271 
L 243.855651 145.738294 
L 245.102679 147.74871 
L 246.605946 149.704643 
L 248.638773 152.049506 
L 249.304994 152.585704 
L 249.629563 152.539882 
L 249.971215 152.240116 
L 250.381197 151.539857 
L 251.149913 149.598121 
L 251.986959 147.915346 
L 252.601932 147.105111 
L 252.909419 147.030714 
L 253.199822 147.206239 
L 253.541474 147.718428 
L 253.968538 148.823394 
L 254.583511 150.441445 
L 254.90808 150.723615 
L 255.147237 150.670516 
L 255.420558 150.338651 
L 255.762209 149.517046 
L 257.111733 144.974833 
L 258.000027 142.161481 
L 258.358762 141.733607 
L 258.615 141.71803 
L 258.871239 141.944158 
L 259.195808 142.57757 
L 259.60579 143.319301 
L 259.896194 143.477684 
L 260.152433 143.364687 
L 260.442836 142.950178 
L 260.818653 141.961968 
L 261.706947 138.614475 
L 263.31271 132.650017 
L 263.654362 132.259698 
L 263.9106 132.253729 
L 264.166839 132.493564 
L 264.610986 133.326961 
L 266.216749 136.205653 
L 266.609648 136.530356 
L 266.934217 136.528441 
L 267.258786 136.282107 
L 267.634603 135.691525 
L 268.061667 134.589029 
L 268.574145 132.557885 
L 269.172035 129.206281 
L 270.009082 124.427381 
L 270.299485 123.888392 
L 270.487394 123.884643 
L 270.675302 124.151974 
L 270.948623 125.024729 
L 272.332313 130.514041 
L 272.691047 130.919377 
L 272.981451 130.943718 
L 273.681836 130.740761 
L 274.416387 130.290851 
L 275.885489 129.279754 
L 276.756701 128.731014 
L 277.217931 128.026554 
L 277.764573 126.752498 
L 278.772445 124.270875 
L 279.216592 123.789767 
L 279.575327 123.692268 
L 280.070721 123.85343 
L 281.31775 124.460562 
L 281.625236 124.528666 
L 281.84731 124.316963 
L 282.137714 123.69394 
L 282.51353 122.305275 
L 282.991843 119.587581 
L 283.555568 116.457961 
L 283.811807 116.032731 
L 283.96555 116.091021 
L 284.153458 116.481498 
L 284.42678 117.676321 
L 284.785514 120.372 
L 285.400487 125.138896 
L 285.827551 126.933136 
L 286.135038 127.452051 
L 286.322946 127.450604 
L 286.527937 127.173403 
L 286.989167 125.977469 
L 287.552892 123.840356 
L 288.219112 120.356815 
L 288.73159 117.918316 
L 289.107407 117.027568 
L 289.363645 116.856046 
L 289.568636 116.973245 
L 289.824875 117.437765 
L 290.508178 118.899924 
L 290.764417 118.981979 
L 291.003573 118.81662 
L 291.293977 118.301777 
L 291.669794 117.125517 
L 292.079776 115.998511 
L 292.387262 115.690761 
L 292.609336 115.755023 
L 292.848492 116.09298 
L 293.173061 116.997424 
L 293.822199 118.964956 
L 294.010107 118.962772 
L 294.198016 118.674092 
L 294.471337 117.742765 
L 294.830071 115.600535 
L 295.906274 108.346657 
L 296.21376 107.723318 
L 296.418751 107.696901 
L 296.606659 107.946166 
L 296.914146 108.835268 
L 297.614532 110.632037 
L 298.195339 111.569706 
L 298.622404 111.911124 
L 298.844477 111.8283 
L 299.100716 111.454366 
L 299.442368 110.49184 
L 299.869432 108.543055 
L 300.894387 103.405886 
L 301.150626 103.173448 
L 301.321452 103.287074 
L 301.543525 103.756015 
L 301.851012 105.004798 
L 302.431819 107.472941 
L 302.773471 108.083172 
L 302.995544 108.141595 
L 303.200535 107.959002 
L 303.473857 107.362338 
L 304.515894 104.600029 
L 304.908794 104.219347 
L 305.233363 104.189238 
L 306.053326 104.570295 
L 307.40285 105.03092 
L 308.171566 105.056034 
L 308.871952 104.864073 
L 309.213604 104.499158 
L 309.623586 103.690614 
L 310.118981 102.174149 
L 311.605165 97.130781 
L 312.083477 96.423531 
L 312.56179 95.822908 
L 313.005937 94.789509 
L 313.535497 92.946491 
L 314.304213 90.241356 
L 314.475039 90.25104 
L 314.662947 90.575686 
L 314.919186 91.548505 
L 315.27792 93.938068 
L 316.183297 100.622214 
L 316.33704 100.678834 
L 316.4737 100.42315 
L 316.695774 99.393386 
L 317.00326 96.712005 
L 318.130711 85.184053 
L 318.352784 84.812886 
L 318.472362 84.901599 
L 318.643188 85.378742 
L 318.899427 86.867418 
L 319.685226 92.131328 
L 320.061042 93.243086 
L 320.317281 93.46616 
L 320.505189 93.354083 
L 320.744346 92.881275 
L 321.478897 90.726825 
L 322.315943 87.52588 
L 322.845503 85.699938 
L 323.170072 85.266327 
L 323.392146 85.275879 
L 323.614219 85.534244 
L 323.921706 86.302745 
L 324.87833 89.104552 
L 325.168734 89.298856 
L 325.40789 89.212625 
L 325.681211 88.841729 
L 326.313267 87.387632 
L 327.59446 84.757869 
L 327.953195 84.384566 
L 328.226516 84.391441 
L 328.499837 84.650249 
L 328.841489 85.328038 
L 329.268553 86.72536 
L 329.849361 88.494607 
L 330.310591 89.278571 
L 330.669325 89.50824 
L 330.959729 89.450037 
L 331.16472 89.187039 
L 331.438041 88.424574 
L 331.813858 86.607739 
L 332.275087 83.161891 
L 333.334207 74.638588 
L 333.556281 74.390977 
L 333.692942 74.552634 
L 333.897933 75.243738 
L 334.188336 77.144341 
L 335.247456 85.270167 
L 335.606191 86.248393 
L 335.828264 86.378795 
L 335.99909 86.231844 
L 336.374907 85.446503 
L 337.075293 83.528994 
L 337.895256 80.590136 
L 339.193533 76.021446 
L 339.928083 74.051701 
L 340.338065 73.5445 
L 340.645552 73.467025 
L 340.935956 73.632269 
L 341.277607 74.116106 
L 342.029241 75.651425 
L 342.866287 77.896294 
L 343.430012 79.267678 
L 343.857077 79.786948 
L 344.181646 79.881152 
L 344.489132 79.73105 
L 344.813702 79.307311 
L 345.206601 78.367526 
L 345.684913 76.58476 
L 346.265721 73.477157 
L 347.000272 69.564089 
L 347.529832 67.858716 
L 347.939814 67.183899 
L 348.315631 66.977475 
L 348.725612 66.984005 
L 349.135594 67.224185 
L 349.596824 67.773673 
L 350.058054 68.672286 
L 350.553449 70.19695 
L 351.151339 72.822794 
L 351.732147 75.304197 
L 351.834642 75.24271 
L 351.988385 74.780999 
L 352.227541 73.181506 
L 352.55211 69.294737 
L 352.979175 61.169994 
L 353.286661 53.568 
L 353.286661 53.568 
" style="fill:none;stroke:#2ca02c;stroke-linecap:square;stroke-width:1.5;"/>
   </g>
   <g id="patch_3">
    <path d="M 57.6 307.584 
L 57.6 41.472 
" style="fill:none;stroke:#000000;stroke-linecap:square;stroke-linejoin:miter;stroke-width:0.8;"/>
   </g>
   <g id="patch_4">
    <path d="M 414.72 307.584 
L 414.72 41.472 
" style="fill:none;stroke:#000000;stroke-linecap:square;stroke-linejoin:miter;stroke-width:0.8;"/>
   </g>
   <g id="patch_5">
    <path d="M 57.6 307.584 
L 414.72 307.584 
" style="fill:none;stroke:#000000;stroke-linecap:square;stroke-linejoin:miter;stroke-width:0.8;"/>
   </g>
   <g id="patch_6">
    <path d="M 57.6 41.472 
L 414.72 41.472 
" style="fill:none;stroke:#000000;stroke-linecap:square;stroke-linejoin:miter;stroke-width:0.8;"/>
   </g>
   <g id="text_17">
    <!-- Complexity Test -->
    <defs>
     <path d="M 64.40625 67.28125 
L 64.40625 56.890625 
Q 59.421875 61.53125 53.78125 63.8125 
Q 48.140625 66.109375 41.796875 66.109375 
Q 29.296875 66.109375 22.65625 58.46875 
Q 16.015625 50.828125 16.015625 36.375 
Q 16.015625 21.96875 22.65625 14.328125 
Q 29.296875 6.6875 41.796875 6.6875 
Q 48.140625 6.6875 53.78125 8.984375 
Q 59.421875 11.28125 64.40625 15.921875 
L 64.40625 5.609375 
Q 59.234375 2.09375 53.4375 0.328125 
Q 47.65625 -1.421875 41.21875 -1.421875 
Q 24.65625 -1.421875 15.125 8.703125 
Q 5.609375 18.84375 5.609375 36.375 
Q 5.609375 53.953125 15.125 64.078125 
Q 24.65625 74.21875 41.21875 74.21875 
Q 47.75 74.21875 53.53125 72.484375 
Q 59.328125 70.75 64.40625 67.28125 
z
" id="DejaVuSans-67"/>
     <path d="M 18.109375 8.203125 
L 18.109375 -20.796875 
L 9.078125 -20.796875 
L 9.078125 54.6875 
L 18.109375 54.6875 
L 18.109375 46.390625 
Q 20.953125 51.265625 25.265625 53.625 
Q 29.59375 56 35.59375 56 
Q 45.5625 56 51.78125 48.09375 
Q 58.015625 40.1875 58.015625 27.296875 
Q 58.015625 14.40625 51.78125 6.484375 
Q 45.5625 -1.421875 35.59375 -1.421875 
Q 29.59375 -1.421875 25.265625 0.953125 
Q 20.953125 3.328125 18.109375 8.203125 
z
M 48.6875 27.296875 
Q 48.6875 37.203125 44.609375 42.84375 
Q 40.53125 48.484375 33.40625 48.484375 
Q 26.265625 48.484375 22.1875 42.84375 
Q 18.109375 37.203125 18.109375 27.296875 
Q 18.109375 17.390625 22.1875 11.75 
Q 26.265625 6.109375 33.40625 6.109375 
Q 40.53125 6.109375 44.609375 11.75 
Q 48.6875 17.390625 48.6875 27.296875 
z
" id="DejaVuSans-112"/>
     <path d="M 9.421875 75.984375 
L 18.40625 75.984375 
L 18.40625 0 
L 9.421875 0 
z
" id="DejaVuSans-108"/>
     <path d="M 32.171875 -5.078125 
Q 28.375 -14.84375 24.75 -17.8125 
Q 21.140625 -20.796875 15.09375 -20.796875 
L 7.90625 -20.796875 
L 7.90625 -13.28125 
L 13.1875 -13.28125 
Q 16.890625 -13.28125 18.9375 -11.515625 
Q 21 -9.765625 23.484375 -3.21875 
L 25.09375 0.875 
L 2.984375 54.6875 
L 12.5 54.6875 
L 29.59375 11.921875 
L 46.6875 54.6875 
L 56.203125 54.6875 
z
" id="DejaVuSans-121"/>
    </defs>
    <g transform="translate(187.440937 35.472)scale(0.12 -0.12)">
     <use xlink:href="#DejaVuSans-67"/>
     <use x="69.824219" xlink:href="#DejaVuSans-111"/>
     <use x="131.005859" xlink:href="#DejaVuSans-109"/>
     <use x="228.417969" xlink:href="#DejaVuSans-112"/>
     <use x="291.894531" xlink:href="#DejaVuSans-108"/>
     <use x="319.677734" xlink:href="#DejaVuSans-101"/>
     <use x="381.185547" xlink:href="#DejaVuSans-120"/>
     <use x="440.365234" xlink:href="#DejaVuSans-105"/>
     <use x="468.148438" xlink:href="#DejaVuSans-116"/>
     <use x="507.357422" xlink:href="#DejaVuSans-121"/>
     <use x="566.537109" xlink:href="#DejaVuSans-32"/>
     <use x="598.324219" xlink:href="#DejaVuSans-84"/>
     <use x="659.142578" xlink:href="#DejaVuSans-101"/>
     <use x="720.666016" xlink:href="#DejaVuSans-115"/>
     <use x="772.765625" xlink:href="#DejaVuSans-116"/>
    </g>
   </g>
   <g id="legend_1">
    <g id="patch_7">
     <path d="M 64.6 93.52825 
L 213.3 93.52825 
Q 215.3 93.52825 215.3 91.52825 
L 215.3 48.472 
Q 215.3 46.472 213.3 46.472 
L 64.6 46.472 
Q 62.6 46.472 62.6 48.472 
L 62.6 91.52825 
Q 62.6 93.52825 64.6 93.52825 
z
" style="fill:#ffffff;opacity:0.8;stroke:#cccccc;stroke-linejoin:miter;"/>
    </g>
    <g id="line2d_17">
     <path d="M 66.6 54.570438 
L 86.6 54.570438 
" style="fill:none;stroke:#1f77b4;stroke-linecap:square;stroke-width:1.5;"/>
    </g>
    <g id="line2d_18"/>
    <g id="text_18">
     <!-- Algorithm: Solid Grid -->
     <defs>
      <path d="M 34.1875 63.1875 
L 20.796875 26.90625 
L 47.609375 26.90625 
z
M 28.609375 72.90625 
L 39.796875 72.90625 
L 67.578125 0 
L 57.328125 0 
L 50.6875 18.703125 
L 17.828125 18.703125 
L 11.1875 0 
L 0.78125 0 
z
" id="DejaVuSans-65"/>
      <path d="M 45.40625 27.984375 
Q 45.40625 37.75 41.375 43.109375 
Q 37.359375 48.484375 30.078125 48.484375 
Q 22.859375 48.484375 18.828125 43.109375 
Q 14.796875 37.75 14.796875 27.984375 
Q 14.796875 18.265625 18.828125 12.890625 
Q 22.859375 7.515625 30.078125 7.515625 
Q 37.359375 7.515625 41.375 12.890625 
Q 45.40625 18.265625 45.40625 27.984375 
z
M 54.390625 6.78125 
Q 54.390625 -7.171875 48.1875 -13.984375 
Q 42 -20.796875 29.203125 -20.796875 
Q 24.46875 -20.796875 20.265625 -20.09375 
Q 16.0625 -19.390625 12.109375 -17.921875 
L 12.109375 -9.1875 
Q 16.0625 -11.328125 19.921875 -12.34375 
Q 23.78125 -13.375 27.78125 -13.375 
Q 36.625 -13.375 41.015625 -8.765625 
Q 45.40625 -4.15625 45.40625 5.171875 
L 45.40625 9.625 
Q 42.625 4.78125 38.28125 2.390625 
Q 33.9375 0 27.875 0 
Q 17.828125 0 11.671875 7.65625 
Q 5.515625 15.328125 5.515625 27.984375 
Q 5.515625 40.671875 11.671875 48.328125 
Q 17.828125 56 27.875 56 
Q 33.9375 56 38.28125 53.609375 
Q 42.625 51.21875 45.40625 46.390625 
L 45.40625 54.6875 
L 54.390625 54.6875 
z
" id="DejaVuSans-103"/>
      <path d="M 54.890625 33.015625 
L 54.890625 0 
L 45.90625 0 
L 45.90625 32.71875 
Q 45.90625 40.484375 42.875 44.328125 
Q 39.84375 48.1875 33.796875 48.1875 
Q 26.515625 48.1875 22.3125 43.546875 
Q 18.109375 38.921875 18.109375 30.90625 
L 18.109375 0 
L 9.078125 0 
L 9.078125 75.984375 
L 18.109375 75.984375 
L 18.109375 46.1875 
Q 21.34375 51.125 25.703125 53.5625 
Q 30.078125 56 35.796875 56 
Q 45.21875 56 50.046875 50.171875 
Q 54.890625 44.34375 54.890625 33.015625 
z
" id="DejaVuSans-104"/>
      <path d="M 11.71875 12.40625 
L 22.015625 12.40625 
L 22.015625 0 
L 11.71875 0 
z
M 11.71875 51.703125 
L 22.015625 51.703125 
L 22.015625 39.3125 
L 11.71875 39.3125 
z
" id="DejaVuSans-58"/>
      <path d="M 45.40625 46.390625 
L 45.40625 75.984375 
L 54.390625 75.984375 
L 54.390625 0 
L 45.40625 0 
L 45.40625 8.203125 
Q 42.578125 3.328125 38.25 0.953125 
Q 33.9375 -1.421875 27.875 -1.421875 
Q 17.96875 -1.421875 11.734375 6.484375 
Q 5.515625 14.40625 5.515625 27.296875 
Q 5.515625 40.1875 11.734375 48.09375 
Q 17.96875 56 27.875 56 
Q 33.9375 56 38.25 53.625 
Q 42.578125 51.265625 45.40625 46.390625 
z
M 14.796875 27.296875 
Q 14.796875 17.390625 18.875 11.75 
Q 22.953125 6.109375 30.078125 6.109375 
Q 37.203125 6.109375 41.296875 11.75 
Q 45.40625 17.390625 45.40625 27.296875 
Q 45.40625 37.203125 41.296875 42.84375 
Q 37.203125 48.484375 30.078125 48.484375 
Q 22.953125 48.484375 18.875 42.84375 
Q 14.796875 37.203125 14.796875 27.296875 
z
" id="DejaVuSans-100"/>
      <path d="M 59.515625 10.40625 
L 59.515625 29.984375 
L 43.40625 29.984375 
L 43.40625 38.09375 
L 69.28125 38.09375 
L 69.28125 6.78125 
Q 63.578125 2.734375 56.6875 0.65625 
Q 49.8125 -1.421875 42 -1.421875 
Q 24.90625 -1.421875 15.25 8.5625 
Q 5.609375 18.5625 5.609375 36.375 
Q 5.609375 54.25 15.25 64.234375 
Q 24.90625 74.21875 42 74.21875 
Q 49.125 74.21875 55.546875 72.453125 
Q 61.96875 70.703125 67.390625 67.28125 
L 67.390625 56.78125 
Q 61.921875 61.421875 55.765625 63.765625 
Q 49.609375 66.109375 42.828125 66.109375 
Q 29.4375 66.109375 22.71875 58.640625 
Q 16.015625 51.171875 16.015625 36.375 
Q 16.015625 21.625 22.71875 14.15625 
Q 29.4375 6.6875 42.828125 6.6875 
Q 48.046875 6.6875 52.140625 7.59375 
Q 56.25 8.5 59.515625 10.40625 
z
" id="DejaVuSans-71"/>
     </defs>
     <g transform="translate(94.6 58.070438)scale(0.1 -0.1)">
      <use xlink:href="#DejaVuSans-65"/>
      <use x="68.408203" xlink:href="#DejaVuSans-108"/>
      <use x="96.191406" xlink:href="#DejaVuSans-103"/>
      <use x="159.667969" xlink:href="#DejaVuSans-111"/>
      <use x="220.849609" xlink:href="#DejaVuSans-114"/>
      <use x="261.962891" xlink:href="#DejaVuSans-105"/>
      <use x="289.746094" xlink:href="#DejaVuSans-116"/>
      <use x="328.955078" xlink:href="#DejaVuSans-104"/>
      <use x="392.333984" xlink:href="#DejaVuSans-109"/>
      <use x="489.746094" xlink:href="#DejaVuSans-58"/>
      <use x="523.4375" xlink:href="#DejaVuSans-32"/>
      <use x="555.224609" xlink:href="#DejaVuSans-83"/>
      <use x="618.701172" xlink:href="#DejaVuSans-111"/>
      <use x="679.882812" xlink:href="#DejaVuSans-108"/>
      <use x="707.666016" xlink:href="#DejaVuSans-105"/>
      <use x="735.449219" xlink:href="#DejaVuSans-100"/>
      <use x="798.925781" xlink:href="#DejaVuSans-32"/>
      <use x="830.712891" xlink:href="#DejaVuSans-71"/>
      <use x="908.203125" xlink:href="#DejaVuSans-114"/>
      <use x="949.316406" xlink:href="#DejaVuSans-105"/>
      <use x="977.099609" xlink:href="#DejaVuSans-100"/>
     </g>
    </g>
    <g id="line2d_19">
     <path d="M 66.6 69.248563 
L 86.6 69.248563 
" style="fill:none;stroke:#ff7f0e;stroke-linecap:square;stroke-width:1.5;"/>
    </g>
    <g id="line2d_20"/>
    <g id="text_19">
     <!-- Guide Curve $O(n)$ -->
     <defs>
      <path d="M 2.984375 54.6875 
L 12.5 54.6875 
L 29.59375 8.796875 
L 46.6875 54.6875 
L 56.203125 54.6875 
L 35.6875 0 
L 23.484375 0 
z
" id="DejaVuSans-118"/>
      <path d="M 45.609375 66.21875 
Q 37.5 66.21875 31.296875 62.28125 
Q 25.09375 58.34375 20.515625 50.296875 
Q 17.578125 45.171875 16.03125 39.40625 
Q 14.5 33.640625 14.5 27.78125 
Q 14.5 17.625 19.359375 12.109375 
Q 24.21875 6.59375 33.109375 6.59375 
Q 41.109375 6.59375 47.375 10.5625 
Q 53.65625 14.546875 58.109375 22.40625 
Q 61.078125 27.6875 62.640625 33.46875 
Q 64.203125 39.265625 64.203125 45.015625 
Q 64.203125 55.125 59.3125 60.671875 
Q 54.4375 66.21875 45.609375 66.21875 
z
M 32.8125 -1.421875 
Q 19.390625 -1.421875 11.6875 6.53125 
Q 4 14.5 4 28.328125 
Q 4 36.234375 7 44.484375 
Q 10.015625 52.734375 15.28125 59.1875 
Q 21.484375 66.75 29.09375 70.484375 
Q 36.71875 74.21875 45.90625 74.21875 
Q 59.28125 74.21875 66.984375 66.328125 
Q 74.703125 58.453125 74.703125 44.828125 
Q 74.703125 36.421875 71.765625 28.3125 
Q 68.84375 20.21875 63.375 13.625 
Q 57.125 6 49.578125 2.28125 
Q 42.046875 -1.421875 32.8125 -1.421875 
z
" id="DejaVuSans-Oblique-79"/>
      <path d="M 55.71875 33.015625 
L 49.3125 0 
L 40.28125 0 
L 46.6875 32.671875 
Q 47.125 34.96875 47.359375 36.71875 
Q 47.609375 38.484375 47.609375 39.5 
Q 47.609375 43.609375 45.015625 45.890625 
Q 42.4375 48.1875 37.796875 48.1875 
Q 30.5625 48.1875 25.34375 43.375 
Q 20.125 38.578125 18.5 30.328125 
L 12.5 0 
L 3.515625 0 
L 14.109375 54.6875 
L 23.09375 54.6875 
L 21.296875 46.09375 
Q 25.046875 50.828125 30.3125 53.40625 
Q 35.59375 56 41.40625 56 
Q 48.640625 56 52.609375 52.09375 
Q 56.59375 48.1875 56.59375 41.109375 
Q 56.59375 39.359375 56.375 37.359375 
Q 56.15625 35.359375 55.71875 33.015625 
z
" id="DejaVuSans-Oblique-110"/>
     </defs>
     <g transform="translate(94.6 72.748563)scale(0.1 -0.1)">
      <use transform="translate(0 0.015625)" xlink:href="#DejaVuSans-71"/>
      <use transform="translate(77.490234 0.015625)" xlink:href="#DejaVuSans-117"/>
      <use transform="translate(140.869141 0.015625)" xlink:href="#DejaVuSans-105"/>
      <use transform="translate(168.652344 0.015625)" xlink:href="#DejaVuSans-100"/>
      <use transform="translate(232.128906 0.015625)" xlink:href="#DejaVuSans-101"/>
      <use transform="translate(293.652344 0.015625)" xlink:href="#DejaVuSans-32"/>
      <use transform="translate(325.439453 0.015625)" xlink:href="#DejaVuSans-67"/>
      <use transform="translate(395.263672 0.015625)" xlink:href="#DejaVuSans-117"/>
      <use transform="translate(458.642578 0.015625)" xlink:href="#DejaVuSans-114"/>
      <use transform="translate(499.755859 0.015625)" xlink:href="#DejaVuSans-118"/>
      <use transform="translate(558.935547 0.015625)" xlink:href="#DejaVuSans-101"/>
      <use transform="translate(620.458984 0.015625)" xlink:href="#DejaVuSans-32"/>
      <use transform="translate(652.246094 0.015625)" xlink:href="#DejaVuSans-Oblique-79"/>
      <use transform="translate(730.957031 0.015625)" xlink:href="#DejaVuSans-40"/>
      <use transform="translate(769.970703 0.015625)" xlink:href="#DejaVuSans-Oblique-110"/>
      <use transform="translate(833.349609 0.015625)" xlink:href="#DejaVuSans-41"/>
     </g>
    </g>
    <g id="line2d_21">
     <path d="M 66.6 83.92825 
L 86.6 83.92825 
" style="fill:none;stroke:#2ca02c;stroke-linecap:square;stroke-width:1.5;"/>
    </g>
    <g id="line2d_22"/>
    <g id="text_20">
     <!-- Guide Curve $O(n log(n))$ -->
     <defs>
      <path d="M 18.3125 75.984375 
L 27.296875 75.984375 
L 12.5 0 
L 3.515625 0 
z
" id="DejaVuSans-Oblique-108"/>
      <path d="M 25.390625 -1.421875 
Q 15.765625 -1.421875 10.171875 4.515625 
Q 4.59375 10.453125 4.59375 20.703125 
Q 4.59375 26.65625 6.515625 32.828125 
Q 8.453125 39.015625 11.53125 43.21875 
Q 16.359375 49.75 22.3125 52.875 
Q 28.265625 56 35.796875 56 
Q 45.125 56 50.859375 50.1875 
Q 56.59375 44.390625 56.59375 35.015625 
Q 56.59375 28.515625 54.6875 22.0625 
Q 52.78125 15.625 49.703125 11.375 
Q 44.921875 4.828125 38.96875 1.703125 
Q 33.015625 -1.421875 25.390625 -1.421875 
z
M 13.921875 21 
Q 13.921875 13.578125 17.015625 9.890625 
Q 20.125 6.203125 26.421875 6.203125 
Q 35.453125 6.203125 41.375 14.078125 
Q 47.3125 21.96875 47.3125 34.078125 
Q 47.3125 41.15625 44.140625 44.765625 
Q 40.96875 48.390625 34.8125 48.390625 
Q 29.734375 48.390625 25.78125 46.015625 
Q 21.828125 43.65625 18.703125 38.8125 
Q 16.40625 35.203125 15.15625 30.5625 
Q 13.921875 25.921875 13.921875 21 
z
" id="DejaVuSans-Oblique-111"/>
      <path d="M 59.625 54.6875 
L 50.296875 6.78125 
Q 47.609375 -7.125 40.015625 -13.953125 
Q 32.421875 -20.796875 19.578125 -20.796875 
Q 14.84375 -20.796875 10.78125 -20.09375 
Q 6.734375 -19.390625 3.21875 -17.921875 
L 4.890625 -9.1875 
Q 8.203125 -11.328125 11.90625 -12.34375 
Q 15.625 -13.375 19.828125 -13.375 
Q 28.375 -13.375 33.859375 -8.703125 
Q 39.359375 -4.046875 41.109375 4.6875 
L 41.890625 8.796875 
Q 38.140625 4.5 33.15625 2.25 
Q 28.171875 0 22.40625 0 
Q 14.109375 0 9.34375 5.484375 
Q 4.59375 10.984375 4.59375 20.609375 
Q 4.59375 28.171875 7.46875 35.421875 
Q 10.359375 42.671875 15.578125 48.296875 
Q 19.046875 52 23.65625 54 
Q 28.265625 56 33.296875 56 
Q 38.8125 56 42.90625 53.4375 
Q 47.015625 50.875 49.03125 46.1875 
L 50.59375 54.6875 
z
M 46.09375 34.625 
Q 46.09375 41.265625 42.96875 44.875 
Q 39.84375 48.484375 34.078125 48.484375 
Q 30.515625 48.484375 27.296875 47.0625 
Q 24.078125 45.65625 21.78125 43.109375 
Q 18.0625 38.921875 15.984375 33.234375 
Q 13.921875 27.546875 13.921875 21.484375 
Q 13.921875 14.75 17.0625 11.125 
Q 20.21875 7.515625 26.125 7.515625 
Q 34.671875 7.515625 40.375 15.25 
Q 46.09375 23 46.09375 34.625 
z
" id="DejaVuSans-Oblique-103"/>
     </defs>
     <g transform="translate(94.6 87.42825)scale(0.1 -0.1)">
      <use transform="translate(0 0.015625)" xlink:href="#DejaVuSans-71"/>
      <use transform="translate(77.490234 0.015625)" xlink:href="#DejaVuSans-117"/>
      <use transform="translate(140.869141 0.015625)" xlink:href="#DejaVuSans-105"/>
      <use transform="translate(168.652344 0.015625)" xlink:href="#DejaVuSans-100"/>
      <use transform="translate(232.128906 0.015625)" xlink:href="#DejaVuSans-101"/>
      <use transform="translate(293.652344 0.015625)" xlink:href="#DejaVuSans-32"/>
      <use transform="translate(325.439453 0.015625)" xlink:href="#DejaVuSans-67"/>
      <use transform="translate(395.263672 0.015625)" xlink:href="#DejaVuSans-117"/>
      <use transform="translate(458.642578 0.015625)" xlink:href="#DejaVuSans-114"/>
      <use transform="translate(499.755859 0.015625)" xlink:href="#DejaVuSans-118"/>
      <use transform="translate(558.935547 0.015625)" xlink:href="#DejaVuSans-101"/>
      <use transform="translate(620.458984 0.015625)" xlink:href="#DejaVuSans-32"/>
      <use transform="translate(652.246094 0.015625)" xlink:href="#DejaVuSans-Oblique-79"/>
      <use transform="translate(730.957031 0.015625)" xlink:href="#DejaVuSans-40"/>
      <use transform="translate(769.970703 0.015625)" xlink:href="#DejaVuSans-Oblique-110"/>
      <use transform="translate(833.349609 0.015625)" xlink:href="#DejaVuSans-Oblique-108"/>
      <use transform="translate(861.132812 0.015625)" xlink:href="#DejaVuSans-Oblique-111"/>
      <use transform="translate(922.314453 0.015625)" xlink:href="#DejaVuSans-Oblique-103"/>
      <use transform="translate(985.791016 0.015625)" xlink:href="#DejaVuSans-40"/>
      <use transform="translate(1024.804688 0.015625)" xlink:href="#DejaVuSans-Oblique-110"/>
      <use transform="translate(1088.183594 0.015625)" xlink:href="#DejaVuSans-41"/>
      <use transform="translate(1127.197266 0.015625)" xlink:href="#DejaVuSans-41"/>
     </g>
    </g>
   </g>
  </g>
 </g>
 <defs>
  <clipPath id="pe322297630">
   <rect height="266.112" width="357.12" x="57.6" y="41.472"/>
  </clipPath>
 </defs>
</svg>
